<svg width="199" height="325" viewBox="0 0 199 325" fill="none" xmlns="http://www.w3.org/2000/svg">
<path d="M117.523 71.244C116.244 62.2785 108.463 57.3688 104.732 56.0347C95.1364 53.633 87.9429 57.2356 83.9453 63.2391C79.9478 69.2425 79.1488 78.7685 84.7448 85.1724C87.5155 88.3431 91.9385 91.2561 96.737 93.6576C103.931 97.2578 117.522 103.264 125.516 106.786C129.285 108.367 132.772 109.933 136 111.475C161.289 123.561 170.715 134.233 175.742 139.924L175.885 140.086C181.507 146.45 186.278 153.695 189.58 160.899C193.803 170.114 196.889 179.116 197.907 192C198.145 195.012 198.27 198.236 198.27 201.724C198.27 228.14 185.479 248.82 177.484 260.16C167.89 273.768 135.911 306.589 100.415 325C62.8392 306.589 31.0973 273.768 20.7868 260.16C19.4389 258.381 18.0881 256.493 16.7584 254.5C7.91628 241.251 0.000400364 223.4 0.000400365 202.525C-0.00306933 197.722 -0.00312382 193.719 0.867594 186.702C2.16232 178.358 4.67393 169.683 8.07572 162.253C11.9935 153.695 15.19 148.892 25.5802 136.884C46.3696 159.298 60.7602 165.462 76.7497 174.507C63.955 184.914 65.6576 191.252 65.5539 197.722C65.5539 207.328 68.4482 213.432 72.4454 218.935C73.6121 220.541 75.0557 222.15 76.7497 223.664C81.5805 227.981 88.4476 231.529 96.737 232.063C101.114 232.344 105.568 231.77 109.365 230.542C114.177 228.985 118.319 226.539 121.997 223.129C124.557 220.755 126.675 218.058 128.281 215.21C128.684 214.496 128.638 214.752 129 214C130.081 211.754 131.372 208.424 131.751 206.527C133.536 197.586 132.337 192.539 131.559 189.717C130.402 185.524 129.032 182.436 126.074 178.472C123.116 174.507 117.408 169.463 110.326 165.462L73.069 144.409C65.1482 139.933 57.5592 135.283 49.5804 128.079C48.1729 126.939 44.5971 123.319 41.0996 118.913C40.4441 118.087 38.6131 115.637 37.5 114C36.1165 111.965 35.4212 110.641 34.5361 108.867C28.7781 98.4606 25.796 86.3007 25.5802 75.2463C25.371 64.5342 27.1791 56.0345 30.457 47.2291C37.5723 28.8177 49.5644 17.6108 61.5566 10.3264C67.5804 6.66725 74.7132 3.73616 82.1337 1.97328C88.1449 0.545194 94.2943 0 101.533 0C116.72 0.800493 127.913 4.80296 138.194 11.2069C157.037 22.9435 167.887 41.6256 171.245 59.0764L117.523 71.244Z" fill="#BE1953"/>
</svg>
