<svg width="124" height="203" viewBox="0 0 124 203" fill="none" xmlns="http://www.w3.org/2000/svg">
<path d="M65.5002 35.0001C67.8335 35.8334 72.7002 38.9001 73.5002 44.5001L107.098 36.9C104.998 26 98.2124 14.3308 86.428 7C79.998 3 72.998 0.5 63.4999 0C58.9726 0 55.1267 0.340537 51.3672 1.23254C46.7263 2.33366 42.2654 4.16447 38.4981 6.45C30.9981 11 23.4981 18 19.0481 29.5C16.9981 35 15.8673 40.3091 15.9981 47C16.1331 53.9048 17.9981 61.5 21.5992 68C22.598 70 24.7845 73.1176 25.7041 74.2748C27.8915 77.0272 30.1278 79.288 31.008 80C35.998 84.5 40.7443 87.4044 45.698 90.2L68.9992 103.35C73.4279 105.849 76.998 109 78.848 111.476C80.698 113.953 81.5547 115.881 82.278 118.5C82.7649 120.263 83.515 123.415 82.398 129C82.0816 130.582 81.2323 132.645 80.2281 134.424C79.2238 136.203 77.8992 137.887 76.298 139.37C73.998 141.5 71.4077 143.028 68.398 144C66.0232 144.767 63.2374 145.126 60.5003 144.95C53.498 144.5 48.1186 140.614 45.308 136.75C42.8081 133.313 40.998 129.5 40.998 123.5C41.0629 119.459 39.998 115.5 48 109C38 103.35 29 99.5 15.9981 85.5C9.5 93 7.50087 96 5.05063 101.346C2.92312 105.986 1.35234 111.405 0.542602 116.617C-0.00195366 121 -0.00191959 123.5 0.000250392 126.5C0.000250391 141.5 6.55197 154 13.0003 162.5C19.4485 171 39.3003 191.5 62.8003 203C85.0003 191.5 105 171 111 162.5C116 155.417 124 142.5 124 126C124 114.5 121.824 107.601 118.565 100.5C116.5 96 113.516 91.4746 110 87.5L109.911 87.3986C106.365 83.3899 99.3221 75.4258 78.4992 66.7C73.4992 64.5 64.9992 60.7487 60.5003 58.5C57.4992 57 54.733 55.1805 53.0002 53.2C49.5004 49.2 50.0001 43.25 52.5002 39.5001C55.0003 35.7503 59.4992 33.5 65.5002 35.0001Z" fill="white"/>
</svg>
