<svg width="474" height="474" viewBox="0 0 474 474" fill="none" xmlns="http://www.w3.org/2000/svg">
<circle cx="237" cy="237" r="237" fill="#771F49"/>
<circle cx="237" cy="272" r="183" fill="#BE1953"/>
<circle cx="237" cy="328" r="119" fill="#EB3355"/>
<path d="M136.56 48.0156V45.1818H153.446V48.0156H146.638V67H143.357V48.0156H136.56ZM156.442 67H152.948L160.799 45.1818H164.603L172.454 67H168.96L162.792 49.1449H162.621L156.442 67ZM157.028 58.456H168.363V61.2259H157.028V58.456ZM175.605 45.1818H179.6L186.546 62.142H186.802L193.748 45.1818H197.743V67H194.611V51.2116H194.408L187.974 66.968H185.374L178.94 51.201H178.737V67H175.605V45.1818ZM210.479 58.4986C210.451 57.2699 210.632 56.2614 211.022 55.473C211.42 54.6847 211.953 54.1023 212.62 53.7259C213.288 53.3423 214.023 53.1506 214.826 53.1506C215.536 53.1506 216.193 53.3033 216.796 53.6087C217.4 53.907 218.089 54.397 218.863 55.0788C219.346 55.4979 219.74 55.8033 220.046 55.995C220.351 56.1797 220.692 56.272 221.068 56.272C221.644 56.272 222.102 56.0589 222.443 55.6328C222.791 55.1996 222.958 54.5604 222.943 53.7152H225.639C225.667 54.951 225.483 55.9631 225.085 56.7514C224.694 57.5398 224.161 58.1222 223.487 58.4986C222.819 58.875 222.088 59.0632 221.292 59.0632C220.575 59.0632 219.914 58.9105 219.311 58.6051C218.707 58.2926 218.022 57.8026 217.255 57.1349C216.757 56.7017 216.36 56.3963 216.061 56.2188C215.763 56.0341 215.426 55.9418 215.049 55.9418C214.502 55.9418 214.048 56.1406 213.686 56.5384C213.331 56.929 213.16 57.5824 213.174 58.4986H210.479ZM245.686 67.3622C244.003 67.3551 242.564 66.9112 241.371 66.0305C240.178 65.1499 239.265 63.8679 238.633 62.1847C238.001 60.5014 237.685 58.4737 237.685 56.1016C237.685 53.7365 238.001 51.7159 238.633 50.0398C239.272 48.3636 240.189 47.0852 241.382 46.2045C242.582 45.3239 244.017 44.8835 245.686 44.8835C247.355 44.8835 248.786 45.3274 249.979 46.2152C251.172 47.0959 252.085 48.3743 252.717 50.0504C253.356 51.7195 253.676 53.7365 253.676 56.1016C253.676 58.4808 253.36 60.5121 252.728 62.1953C252.096 63.8714 251.183 65.1534 249.99 66.0412C248.797 66.9219 247.362 67.3622 245.686 67.3622ZM245.686 64.5178C247.163 64.5178 248.317 63.7969 249.148 62.3551C249.986 60.9134 250.405 58.8288 250.405 56.1016C250.405 54.2905 250.214 52.7599 249.83 51.5099C249.454 50.2528 248.91 49.3011 248.2 48.6548C247.497 48.0014 246.659 47.6747 245.686 47.6747C244.216 47.6747 243.062 48.3991 242.223 49.848C241.385 51.2969 240.963 53.3814 240.956 56.1016C240.956 57.9197 241.144 59.4574 241.52 60.7145C241.904 61.9645 242.447 62.9126 243.15 63.5589C243.853 64.1982 244.699 64.5178 245.686 64.5178ZM258.805 67.2024C258.223 67.2024 257.722 66.9964 257.303 66.5845C256.884 66.1655 256.675 65.6612 256.675 65.0717C256.675 64.4893 256.884 63.9922 257.303 63.5803C257.722 63.1612 258.223 62.9517 258.805 62.9517C259.388 62.9517 259.889 63.1612 260.308 63.5803C260.727 63.9922 260.936 64.4893 260.936 65.0717C260.936 65.4624 260.837 65.821 260.638 66.1477C260.446 66.4673 260.19 66.723 259.871 66.9148C259.551 67.1065 259.196 67.2024 258.805 67.2024ZM271.8 67.2983C270.273 67.2983 268.924 67.0355 267.752 66.5099C266.587 65.9844 265.674 65.2599 265.014 64.3366C264.353 63.4134 264.027 62.3622 264.034 61.1832C264.027 60.2599 264.215 59.4112 264.598 58.6371C264.989 57.8558 265.518 57.206 266.186 56.6875C266.853 56.1619 267.599 55.8281 268.423 55.6861V55.5582C267.336 55.2955 266.466 54.7131 265.813 53.8111C265.159 52.9091 264.836 51.8722 264.843 50.7003C264.836 49.5852 265.131 48.5909 265.728 47.7173C266.331 46.8366 267.159 46.1442 268.21 45.6399C269.261 45.1357 270.458 44.8835 271.8 44.8835C273.128 44.8835 274.314 45.1392 275.358 45.6506C276.409 46.1548 277.237 46.8473 277.84 47.728C278.444 48.6016 278.75 49.5923 278.757 50.7003C278.75 51.8722 278.416 52.9091 277.755 53.8111C277.095 54.7131 276.235 55.2955 275.177 55.5582V55.6861C275.994 55.8281 276.729 56.1619 277.382 56.6875C278.043 57.206 278.568 57.8558 278.959 58.6371C279.357 59.4112 279.559 60.2599 279.566 61.1832C279.559 62.3622 279.225 63.4134 278.565 64.3366C277.904 65.2599 276.988 65.9844 275.816 66.5099C274.652 67.0355 273.313 67.2983 271.8 67.2983ZM271.8 64.603C272.702 64.603 273.483 64.4538 274.144 64.1555C274.804 63.8501 275.316 63.4276 275.678 62.8878C276.04 62.3409 276.225 61.7017 276.232 60.9702C276.225 60.2102 276.026 59.5391 275.635 58.9567C275.252 58.3743 274.73 57.9162 274.069 57.5824C273.409 57.2486 272.652 57.0817 271.8 57.0817C270.941 57.0817 270.177 57.2486 269.509 57.5824C268.842 57.9162 268.316 58.3743 267.933 58.9567C267.549 59.5391 267.361 60.2102 267.368 60.9702C267.361 61.7017 267.535 62.3409 267.89 62.8878C268.252 63.4276 268.767 63.8501 269.435 64.1555C270.103 64.4538 270.891 64.603 271.8 64.603ZM271.8 54.4503C272.524 54.4503 273.167 54.3047 273.728 54.0135C274.289 53.7223 274.73 53.3175 275.049 52.799C275.376 52.2805 275.543 51.6733 275.55 50.9773C275.543 50.2955 275.38 49.6989 275.06 49.1875C274.747 48.6761 274.311 48.282 273.75 48.005C273.188 47.7209 272.539 47.5788 271.8 47.5788C271.047 47.5788 270.387 47.7209 269.818 48.005C269.257 48.282 268.821 48.6761 268.508 49.1875C268.196 49.6989 268.043 50.2955 268.05 50.9773C268.043 51.6733 268.199 52.2805 268.519 52.799C268.838 53.3175 269.279 53.7223 269.84 54.0135C270.408 54.3047 271.061 54.4503 271.8 54.4503ZM283.681 45.1818H287.676L294.622 62.142H294.878L301.824 45.1818H305.819V67H302.687V51.2116H302.484L296.05 66.968H293.45L287.016 51.201H286.813V67H283.681V45.1818ZM318.659 44.1591L311.628 70.2812H308.783L315.815 44.1591H318.659ZM319.937 45.1818H323.677L329.376 55.1001H329.611L335.31 45.1818H339.05L331.134 58.4347V67H327.853V58.4347L319.937 45.1818Z" fill="white"/>
<path d="M147.423 167.913C147.309 166.905 146.84 166.124 146.017 165.57C145.193 165.009 144.156 164.728 142.906 164.728C142.011 164.728 141.237 164.87 140.583 165.154C139.93 165.431 139.422 165.815 139.06 166.305C138.705 166.788 138.527 167.338 138.527 167.956C138.527 168.474 138.648 168.922 138.889 169.298C139.138 169.675 139.461 169.991 139.859 170.246C140.264 170.495 140.697 170.705 141.159 170.875C141.62 171.038 142.064 171.173 142.49 171.28L144.621 171.834C145.317 172.004 146.031 172.235 146.762 172.526C147.494 172.817 148.172 173.201 148.797 173.677C149.422 174.153 149.926 174.742 150.31 175.445C150.701 176.148 150.896 176.99 150.896 177.97C150.896 179.206 150.576 180.303 149.937 181.262C149.305 182.221 148.385 182.977 147.178 183.531C145.978 184.085 144.525 184.362 142.821 184.362C141.187 184.362 139.774 184.103 138.581 183.585C137.387 183.066 136.453 182.331 135.779 181.379C135.104 180.42 134.731 179.284 134.66 177.97H137.963C138.027 178.759 138.282 179.415 138.73 179.941C139.184 180.46 139.763 180.847 140.466 181.102C141.176 181.351 141.954 181.475 142.799 181.475C143.73 181.475 144.557 181.33 145.282 181.038C146.013 180.74 146.588 180.328 147.007 179.803C147.426 179.27 147.636 178.648 147.636 177.938C147.636 177.292 147.451 176.763 147.082 176.351C146.72 175.939 146.226 175.598 145.601 175.328C144.983 175.058 144.284 174.82 143.502 174.614L140.924 173.911C139.177 173.435 137.792 172.736 136.769 171.812C135.754 170.889 135.246 169.668 135.246 168.148C135.246 166.891 135.587 165.793 136.269 164.856C136.951 163.918 137.874 163.19 139.039 162.672C140.203 162.146 141.517 161.884 142.98 161.884C144.458 161.884 145.761 162.143 146.89 162.661C148.027 163.18 148.921 163.893 149.575 164.803C150.228 165.705 150.569 166.741 150.598 167.913H147.423ZM156.497 184H153.003L160.854 162.182H164.657L172.509 184H169.015L162.846 166.145H162.676L156.497 184ZM157.083 175.456H168.418V178.226H157.083V175.456ZM175.66 162.182H179.655L186.601 179.142H186.856L193.802 162.182H197.797V184H194.665V168.212H194.463L188.028 183.968H185.429L178.994 168.201H178.792V184H175.66V162.182ZM210.534 175.499C210.505 174.27 210.686 173.261 211.077 172.473C211.475 171.685 212.007 171.102 212.675 170.726C213.343 170.342 214.078 170.151 214.88 170.151C215.59 170.151 216.247 170.303 216.851 170.609C217.455 170.907 218.144 171.397 218.918 172.079C219.401 172.498 219.795 172.803 220.1 172.995C220.406 173.18 220.747 173.272 221.123 173.272C221.698 173.272 222.157 173.059 222.497 172.633C222.845 172.2 223.012 171.56 222.998 170.715H225.693C225.722 171.951 225.537 172.963 225.139 173.751C224.749 174.54 224.216 175.122 223.541 175.499C222.874 175.875 222.142 176.063 221.347 176.063C220.63 176.063 219.969 175.911 219.365 175.605C218.762 175.293 218.076 174.803 217.309 174.135C216.812 173.702 216.414 173.396 216.116 173.219C215.818 173.034 215.48 172.942 215.104 172.942C214.557 172.942 214.103 173.141 213.74 173.538C213.385 173.929 213.215 174.582 213.229 175.499H210.534ZM245.741 184.362C244.057 184.355 242.619 183.911 241.426 183.031C240.233 182.15 239.32 180.868 238.688 179.185C238.056 177.501 237.74 175.474 237.74 173.102C237.74 170.737 238.056 168.716 238.688 167.04C239.327 165.364 240.243 164.085 241.437 163.205C242.637 162.324 244.071 161.884 245.741 161.884C247.41 161.884 248.841 162.327 250.034 163.215C251.227 164.096 252.14 165.374 252.772 167.05C253.411 168.719 253.731 170.737 253.731 173.102C253.731 175.481 253.415 177.512 252.782 179.195C252.15 180.871 251.238 182.153 250.044 183.041C248.851 183.922 247.417 184.362 245.741 184.362ZM245.741 181.518C247.218 181.518 248.372 180.797 249.203 179.355C250.041 177.913 250.46 175.829 250.46 173.102C250.46 171.29 250.268 169.76 249.885 168.51C249.508 167.253 248.965 166.301 248.255 165.655C247.552 165.001 246.714 164.675 245.741 164.675C244.27 164.675 243.116 165.399 242.278 166.848C241.44 168.297 241.017 170.381 241.01 173.102C241.01 174.92 241.199 176.457 241.575 177.714C241.959 178.964 242.502 179.913 243.205 180.559C243.908 181.198 244.753 181.518 245.741 181.518ZM258.86 184.202C258.278 184.202 257.777 183.996 257.358 183.585C256.939 183.165 256.729 182.661 256.729 182.072C256.729 181.489 256.939 180.992 257.358 180.58C257.777 180.161 258.278 179.952 258.86 179.952C259.443 179.952 259.943 180.161 260.362 180.58C260.781 180.992 260.991 181.489 260.991 182.072C260.991 182.462 260.891 182.821 260.693 183.148C260.501 183.467 260.245 183.723 259.926 183.915C259.606 184.107 259.251 184.202 258.86 184.202ZM272.041 184.298C271.068 184.284 270.109 184.107 269.165 183.766C268.227 183.425 267.375 182.857 266.608 182.061C265.841 181.266 265.226 180.197 264.765 178.854C264.31 177.512 264.083 175.836 264.083 173.826C264.083 171.923 264.271 170.232 264.648 168.755C265.031 167.278 265.582 166.031 266.299 165.016C267.016 163.993 267.883 163.215 268.898 162.683C269.914 162.15 271.054 161.884 272.318 161.884C273.618 161.884 274.772 162.139 275.78 162.651C276.789 163.162 277.606 163.869 278.231 164.771C278.863 165.673 279.264 166.699 279.435 167.849H276.185C275.965 166.94 275.528 166.198 274.875 165.623C274.222 165.048 273.369 164.76 272.318 164.76C270.72 164.76 269.474 165.456 268.579 166.848C267.691 168.24 267.244 170.175 267.236 172.654H267.396C267.773 172.036 268.234 171.511 268.781 171.077C269.335 170.637 269.953 170.3 270.635 170.065C271.324 169.824 272.048 169.703 272.808 169.703C274.072 169.703 275.216 170.012 276.239 170.63C277.268 171.241 278.089 172.086 278.699 173.165C279.31 174.245 279.616 175.481 279.616 176.873C279.616 178.265 279.3 179.526 278.668 180.655C278.043 181.784 277.162 182.679 276.025 183.339C274.889 183.993 273.561 184.312 272.041 184.298ZM272.03 181.528C272.869 181.528 273.618 181.322 274.278 180.911C274.939 180.499 275.461 179.945 275.844 179.249C276.228 178.553 276.42 177.775 276.42 176.915C276.42 176.077 276.231 175.314 275.855 174.625C275.486 173.936 274.974 173.389 274.321 172.984C273.675 172.58 272.936 172.377 272.105 172.377C271.473 172.377 270.887 172.498 270.347 172.739C269.815 172.981 269.346 173.315 268.941 173.741C268.536 174.167 268.217 174.657 267.982 175.211C267.755 175.758 267.641 176.337 267.641 176.947C267.641 177.764 267.829 178.521 268.206 179.217C268.589 179.913 269.111 180.474 269.772 180.9C270.44 181.319 271.192 181.528 272.03 181.528ZM283.794 162.182H287.79L294.736 179.142H294.991L301.937 162.182H305.932V184H302.8V168.212H302.598L296.163 183.968H293.564L287.129 168.201H286.927V184H283.794V162.182ZM318.772 161.159L311.741 187.281H308.897L315.928 161.159H318.772ZM320.051 162.182H323.79L329.49 172.1H329.724L335.424 162.182H339.163L331.247 175.435V184H327.966V175.435L320.051 162.182Z" fill="white"/>
<path d="M213.184 275.913C213.07 274.905 212.601 274.124 211.777 273.57C210.953 273.009 209.917 272.728 208.667 272.728C207.772 272.728 206.998 272.87 206.344 273.154C205.691 273.431 205.183 273.815 204.821 274.305C204.466 274.788 204.288 275.338 204.288 275.956C204.288 276.474 204.409 276.922 204.65 277.298C204.899 277.675 205.222 277.991 205.62 278.246C206.025 278.495 206.458 278.705 206.919 278.875C207.381 279.038 207.825 279.173 208.251 279.28L210.382 279.834C211.078 280.004 211.792 280.235 212.523 280.526C213.255 280.817 213.933 281.201 214.558 281.677C215.183 282.153 215.687 282.742 216.071 283.445C216.461 284.148 216.657 284.99 216.657 285.97C216.657 287.206 216.337 288.303 215.698 289.262C215.066 290.221 214.146 290.977 212.939 291.531C211.738 292.085 210.286 292.362 208.581 292.362C206.948 292.362 205.534 292.103 204.341 291.585C203.148 291.066 202.214 290.331 201.539 289.379C200.865 288.42 200.492 287.284 200.421 285.97H203.723C203.787 286.759 204.043 287.415 204.49 287.941C204.945 288.46 205.524 288.847 206.227 289.102C206.937 289.351 207.715 289.475 208.56 289.475C209.49 289.475 210.318 289.33 211.042 289.038C211.774 288.74 212.349 288.328 212.768 287.803C213.187 287.27 213.397 286.648 213.397 285.938C213.397 285.292 213.212 284.763 212.843 284.351C212.48 283.939 211.987 283.598 211.362 283.328C210.744 283.058 210.044 282.82 209.263 282.614L206.685 281.911C204.938 281.435 203.553 280.736 202.53 279.812C201.515 278.889 201.007 277.668 201.007 276.148C201.007 274.891 201.348 273.793 202.029 272.856C202.711 271.918 203.635 271.19 204.799 270.672C205.964 270.146 207.278 269.884 208.741 269.884C210.218 269.884 211.522 270.143 212.651 270.661C213.787 271.18 214.682 271.893 215.336 272.803C215.989 273.705 216.33 274.741 216.358 275.913H213.184ZM239.543 281.091C239.543 283.42 239.117 285.423 238.264 287.099C237.412 288.768 236.244 290.054 234.759 290.956C233.282 291.851 231.602 292.298 229.72 292.298C227.831 292.298 226.144 291.851 224.66 290.956C223.183 290.054 222.018 288.765 221.166 287.089C220.313 285.413 219.887 283.413 219.887 281.091C219.887 278.761 220.313 276.762 221.166 275.093C222.018 273.417 223.183 272.131 224.66 271.237C226.144 270.335 227.831 269.884 229.72 269.884C231.602 269.884 233.282 270.335 234.759 271.237C236.244 272.131 237.412 273.417 238.264 275.093C239.117 276.762 239.543 278.761 239.543 281.091ZM236.283 281.091C236.283 279.315 235.995 277.82 235.42 276.606C234.852 275.384 234.07 274.461 233.076 273.836C232.089 273.204 230.97 272.888 229.72 272.888C228.463 272.888 227.341 273.204 226.354 273.836C225.367 274.461 224.585 275.384 224.01 276.606C223.442 277.82 223.158 279.315 223.158 281.091C223.158 282.866 223.442 284.365 224.01 285.587C224.585 286.801 225.367 287.724 226.354 288.357C227.341 288.982 228.463 289.294 229.72 289.294C230.97 289.294 232.089 288.982 233.076 288.357C234.07 287.724 234.852 286.801 235.42 285.587C235.995 284.365 236.283 282.866 236.283 281.091ZM243.647 270.182H247.642L254.588 287.142H254.844L261.79 270.182H265.785V292H262.653V276.212H262.45L256.016 291.968H253.416L246.982 276.201H246.779V292H243.647V270.182ZM225.948 321.714C225.919 320.486 226.1 319.477 226.491 318.689C226.889 317.901 227.421 317.318 228.089 316.942C228.757 316.558 229.492 316.366 230.294 316.366C231.005 316.366 231.661 316.519 232.265 316.825C232.869 317.123 233.558 317.613 234.332 318.295C234.815 318.714 235.209 319.019 235.514 319.211C235.82 319.396 236.161 319.488 236.537 319.488C237.112 319.488 237.571 319.275 237.911 318.849C238.259 318.415 238.426 317.776 238.412 316.931H241.108C241.136 318.167 240.951 319.179 240.554 319.967C240.163 320.756 239.63 321.338 238.956 321.714C238.288 322.091 237.556 322.279 236.761 322.279C236.044 322.279 235.383 322.126 234.779 321.821C234.176 321.509 233.49 321.018 232.723 320.351C232.226 319.918 231.828 319.612 231.53 319.435C231.232 319.25 230.894 319.158 230.518 319.158C229.971 319.158 229.517 319.357 229.154 319.754C228.799 320.145 228.629 320.798 228.643 321.714H225.948ZM195.149 364.362C193.465 364.355 192.027 363.911 190.834 363.031C189.641 362.15 188.728 360.868 188.096 359.185C187.464 357.501 187.148 355.474 187.148 353.102C187.148 350.737 187.464 348.716 188.096 347.04C188.735 345.364 189.652 344.085 190.845 343.205C192.045 342.324 193.48 341.884 195.149 341.884C196.818 341.884 198.249 342.327 199.442 343.215C200.635 344.096 201.548 345.374 202.18 347.05C202.819 348.719 203.139 350.737 203.139 353.102C203.139 355.481 202.823 357.512 202.191 359.195C201.559 360.871 200.646 362.153 199.453 363.041C198.259 363.922 196.825 364.362 195.149 364.362ZM195.149 361.518C196.626 361.518 197.78 360.797 198.611 359.355C199.449 357.913 199.868 355.829 199.868 353.102C199.868 351.29 199.676 349.76 199.293 348.51C198.916 347.253 198.373 346.301 197.663 345.655C196.96 345.001 196.122 344.675 195.149 344.675C193.679 344.675 192.524 345.399 191.686 346.848C190.848 348.297 190.426 350.381 190.419 353.102C190.419 354.92 190.607 356.457 190.983 357.714C191.367 358.964 191.91 359.913 192.613 360.559C193.316 361.198 194.161 361.518 195.149 361.518ZM208.268 364.202C207.686 364.202 207.185 363.996 206.766 363.585C206.347 363.165 206.138 362.661 206.138 362.072C206.138 361.489 206.347 360.992 206.766 360.58C207.185 360.161 207.686 359.952 208.268 359.952C208.851 359.952 209.351 360.161 209.771 360.58C210.19 360.992 210.399 361.489 210.399 362.072C210.399 362.462 210.3 362.821 210.101 363.148C209.909 363.467 209.653 363.723 209.334 363.915C209.014 364.107 208.659 364.202 208.268 364.202ZM221.428 364.298C219.965 364.298 218.658 364.046 217.508 363.542C216.364 363.038 215.459 362.338 214.791 361.443C214.13 360.541 213.775 359.497 213.726 358.311H217.071C217.113 358.957 217.33 359.518 217.721 359.994C218.118 360.463 218.637 360.825 219.276 361.081C219.915 361.337 220.625 361.464 221.407 361.464C222.266 361.464 223.026 361.315 223.687 361.017C224.354 360.719 224.876 360.303 225.253 359.771C225.629 359.231 225.817 358.609 225.817 357.906C225.817 357.175 225.629 356.532 225.253 355.978C224.883 355.417 224.34 354.977 223.623 354.657C222.912 354.337 222.053 354.178 221.044 354.178H219.201V351.493H221.044C221.854 351.493 222.564 351.347 223.175 351.056C223.793 350.765 224.276 350.36 224.624 349.842C224.972 349.316 225.146 348.702 225.146 347.999C225.146 347.324 224.993 346.738 224.688 346.241C224.39 345.737 223.964 345.342 223.41 345.058C222.863 344.774 222.216 344.632 221.471 344.632C220.76 344.632 220.096 344.763 219.478 345.026C218.868 345.282 218.37 345.651 217.987 346.134C217.603 346.61 217.397 347.182 217.369 347.849H214.184C214.219 346.67 214.567 345.634 215.228 344.739C215.895 343.844 216.776 343.144 217.87 342.64C218.964 342.136 220.178 341.884 221.513 341.884C222.912 341.884 224.12 342.157 225.135 342.704C226.158 343.244 226.946 343.964 227.5 344.866C228.062 345.768 228.339 346.756 228.331 347.828C228.339 349.05 227.998 350.087 227.309 350.939C226.627 351.791 225.718 352.363 224.581 352.654V352.825C226.03 353.045 227.152 353.62 227.948 354.55C228.75 355.481 229.148 356.635 229.141 358.013C229.148 359.213 228.814 360.289 228.14 361.241C227.472 362.192 226.559 362.942 225.402 363.489C224.244 364.028 222.919 364.298 221.428 364.298ZM233.466 342.182H237.461L244.407 359.142H244.663L251.609 342.182H255.604V364H252.472V348.212H252.27L245.835 363.968H243.236L236.801 348.201H236.598V364H233.466V342.182ZM268.444 341.159L261.413 367.281H258.568L265.6 341.159H268.444ZM269.723 342.182H273.462L279.161 352.1H279.396L285.095 342.182H288.835L280.919 355.435V364H277.638V355.435L269.723 342.182Z" fill="white"/>
</svg>
