<svg width="474" height="474" viewBox="0 0 474 474" fill="none" xmlns="http://www.w3.org/2000/svg">
<circle cx="237" cy="237" r="237" fill="#771F49"/>
<circle cx="237" cy="370" r="91" fill="#BE1953"/>
<circle cx="236.5" cy="398.5" r="52.5" fill="#EB3355"/>
<path d="M151.763 139.016V136.182H168.649V139.016H161.842V158H158.56V139.016H151.763ZM171.645 158H168.151L176.003 136.182H179.806L187.657 158H184.163L177.995 140.145H177.824L171.645 158ZM172.231 149.456H183.566V152.226H172.231V149.456ZM190.808 136.182H194.803L201.749 153.142H202.005L208.951 136.182H212.946V158H209.814V142.212H209.611L203.177 157.968H200.577L194.143 142.201H193.94V158H190.808V136.182ZM225.682 149.499C225.654 148.27 225.835 147.261 226.225 146.473C226.623 145.685 227.156 145.102 227.823 144.726C228.491 144.342 229.226 144.151 230.029 144.151C230.739 144.151 231.396 144.303 232 144.609C232.603 144.907 233.292 145.397 234.066 146.079C234.549 146.498 234.943 146.803 235.249 146.995C235.554 147.18 235.895 147.272 236.272 147.272C236.847 147.272 237.305 147.059 237.646 146.633C237.994 146.2 238.161 145.56 238.147 144.715H240.842C240.87 145.951 240.686 146.963 240.288 147.751C239.897 148.54 239.365 149.122 238.69 149.499C238.022 149.875 237.291 150.063 236.495 150.063C235.778 150.063 235.117 149.911 234.514 149.605C233.91 149.293 233.225 148.803 232.458 148.135C231.96 147.702 231.563 147.396 231.264 147.219C230.966 147.034 230.629 146.942 230.252 146.942C229.706 146.942 229.251 147.141 228.889 147.538C228.534 147.929 228.363 148.582 228.377 149.499H225.682ZM260.889 158.298C259.426 158.298 258.119 158.046 256.968 157.542C255.825 157.038 254.919 156.338 254.252 155.443C253.591 154.541 253.236 153.497 253.187 152.311H256.532C256.574 152.957 256.791 153.518 257.182 153.994C257.579 154.463 258.098 154.825 258.737 155.081C259.376 155.337 260.086 155.464 260.868 155.464C261.727 155.464 262.487 155.315 263.147 155.017C263.815 154.719 264.337 154.303 264.714 153.771C265.09 153.231 265.278 152.609 265.278 151.906C265.278 151.175 265.09 150.532 264.714 149.978C264.344 149.417 263.801 148.977 263.084 148.657C262.373 148.337 261.514 148.178 260.505 148.178H258.662V145.493H260.505C261.315 145.493 262.025 145.347 262.636 145.056C263.254 144.765 263.737 144.36 264.085 143.842C264.433 143.316 264.607 142.702 264.607 141.999C264.607 141.324 264.454 140.738 264.149 140.241C263.851 139.737 263.424 139.342 262.87 139.058C262.324 138.774 261.677 138.632 260.932 138.632C260.221 138.632 259.557 138.763 258.939 139.026C258.329 139.282 257.831 139.651 257.448 140.134C257.064 140.61 256.858 141.182 256.83 141.849H253.645C253.68 140.67 254.028 139.634 254.689 138.739C255.356 137.844 256.237 137.144 257.331 136.64C258.424 136.136 259.639 135.884 260.974 135.884C262.373 135.884 263.581 136.157 264.596 136.704C265.619 137.244 266.407 137.964 266.961 138.866C267.522 139.768 267.799 140.756 267.792 141.828C267.799 143.05 267.459 144.087 266.77 144.939C266.088 145.791 265.179 146.363 264.042 146.654V146.825C265.491 147.045 266.613 147.62 267.409 148.55C268.211 149.481 268.609 150.635 268.602 152.013C268.609 153.213 268.275 154.289 267.601 155.241C266.933 156.192 266.02 156.942 264.863 157.489C263.705 158.028 262.38 158.298 260.889 158.298ZM274.126 158.202C273.543 158.202 273.043 157.996 272.624 157.585C272.205 157.165 271.995 156.661 271.995 156.072C271.995 155.489 272.205 154.992 272.624 154.58C273.043 154.161 273.543 153.952 274.126 153.952C274.708 153.952 275.209 154.161 275.628 154.58C276.047 154.992 276.256 155.489 276.256 156.072C276.256 156.462 276.157 156.821 275.958 157.148C275.766 157.467 275.511 157.723 275.191 157.915C274.872 158.107 274.516 158.202 274.126 158.202ZM287.331 158.298C285.995 158.298 284.795 158.043 283.73 157.531C282.672 157.013 281.826 156.303 281.194 155.401C280.562 154.499 280.225 153.469 280.182 152.311H283.378C283.456 153.249 283.872 154.019 284.625 154.623C285.378 155.227 286.28 155.528 287.331 155.528C288.169 155.528 288.911 155.337 289.557 154.953C290.211 154.562 290.722 154.026 291.091 153.344C291.468 152.663 291.656 151.885 291.656 151.011C291.656 150.124 291.464 149.332 291.081 148.636C290.697 147.94 290.168 147.393 289.493 146.995C288.826 146.597 288.059 146.395 287.192 146.388C286.532 146.388 285.868 146.501 285.2 146.729C284.532 146.956 283.993 147.254 283.581 147.624L280.566 147.176L281.791 136.182H293.787V139.005H284.529L283.836 145.109H283.964C284.39 144.697 284.955 144.353 285.658 144.076C286.368 143.799 287.128 143.661 287.938 143.661C289.266 143.661 290.449 143.977 291.486 144.609C292.53 145.241 293.35 146.104 293.946 147.197C294.55 148.284 294.848 149.534 294.841 150.947C294.848 152.361 294.529 153.621 293.883 154.729C293.243 155.837 292.356 156.711 291.219 157.35C290.09 157.982 288.794 158.298 287.331 158.298ZM299.031 136.182H303.026L309.972 153.142H310.228L317.174 136.182H321.169V158H318.036V142.212H317.834L311.399 157.968H308.8L302.365 142.201H302.163V158H299.031V136.182Z" fill="white"/>
<path d="M184.588 316.276C184.512 315.603 184.2 315.082 183.65 314.713C183.101 314.339 182.41 314.152 181.577 314.152C180.98 314.152 180.464 314.247 180.028 314.436C179.593 314.621 179.254 314.876 179.013 315.203C178.776 315.525 178.657 315.892 178.657 316.304C178.657 316.65 178.738 316.948 178.899 317.199C179.065 317.45 179.28 317.661 179.545 317.831C179.815 317.997 180.104 318.136 180.412 318.25C180.72 318.359 181.015 318.449 181.3 318.52L182.72 318.889C183.184 319.003 183.66 319.157 184.148 319.351C184.635 319.545 185.087 319.801 185.504 320.118C185.921 320.435 186.257 320.828 186.513 321.297C186.773 321.766 186.903 322.327 186.903 322.98C186.903 323.804 186.69 324.536 186.264 325.175C185.843 325.814 185.229 326.318 184.425 326.688C183.624 327.057 182.656 327.241 181.52 327.241C180.431 327.241 179.488 327.069 178.693 326.723C177.898 326.377 177.275 325.887 176.825 325.253C176.375 324.614 176.127 323.856 176.079 322.98H178.281C178.324 323.506 178.494 323.944 178.792 324.294C179.095 324.64 179.481 324.898 179.95 325.068C180.424 325.234 180.942 325.317 181.506 325.317C182.126 325.317 182.677 325.22 183.16 325.026C183.648 324.827 184.032 324.552 184.311 324.202C184.59 323.847 184.73 323.432 184.73 322.959C184.73 322.528 184.607 322.175 184.361 321.901C184.119 321.626 183.79 321.399 183.373 321.219C182.961 321.039 182.495 320.88 181.974 320.743L180.256 320.274C179.091 319.957 178.167 319.491 177.486 318.875C176.809 318.259 176.47 317.445 176.47 316.432C176.47 315.594 176.697 314.862 177.152 314.237C177.606 313.612 178.222 313.127 178.998 312.781C179.775 312.431 180.651 312.256 181.626 312.256C182.611 312.256 183.48 312.429 184.233 312.774C184.99 313.12 185.587 313.596 186.023 314.202C186.458 314.803 186.685 315.494 186.704 316.276H184.588ZM190.637 327H188.308L193.542 312.455H196.078L201.312 327H198.982L194.87 315.097H194.757L190.637 327ZM191.028 321.304H198.585V323.151H191.028V321.304ZM203.412 312.455H206.076L210.706 323.761H210.877L215.508 312.455H218.171V327H216.083V316.474H215.948L211.658 326.979H209.925L205.635 316.467H205.501V327H203.412V312.455ZM226.662 321.332C226.643 320.513 226.764 319.841 227.024 319.315C227.289 318.79 227.644 318.402 228.089 318.151C228.534 317.895 229.024 317.767 229.559 317.767C230.033 317.767 230.471 317.869 230.873 318.072C231.276 318.271 231.735 318.598 232.251 319.053C232.573 319.332 232.836 319.536 233.04 319.663C233.243 319.786 233.47 319.848 233.721 319.848C234.105 319.848 234.41 319.706 234.638 319.422C234.87 319.133 234.981 318.707 234.971 318.143H236.768C236.787 318.967 236.664 319.642 236.399 320.168C236.139 320.693 235.783 321.081 235.334 321.332C234.889 321.583 234.401 321.709 233.871 321.709C233.392 321.709 232.952 321.607 232.55 321.403C232.147 321.195 231.69 320.868 231.179 320.423C230.847 320.134 230.582 319.931 230.383 319.812C230.184 319.689 229.96 319.628 229.709 319.628C229.344 319.628 229.041 319.76 228.8 320.026C228.563 320.286 228.449 320.722 228.459 321.332H226.662ZM250.133 327.241C249.011 327.237 248.052 326.941 247.257 326.354C246.461 325.767 245.853 324.912 245.431 323.79C245.01 322.668 244.799 321.316 244.799 319.734C244.799 318.158 245.01 316.811 245.431 315.693C245.857 314.576 246.468 313.723 247.264 313.136C248.064 312.549 249.02 312.256 250.133 312.256C251.246 312.256 252.2 312.552 252.995 313.143C253.791 313.731 254.399 314.583 254.82 315.7C255.247 316.813 255.46 318.158 255.46 319.734C255.46 321.321 255.249 322.675 254.828 323.797C254.406 324.914 253.798 325.769 253.002 326.361C252.207 326.948 251.25 327.241 250.133 327.241ZM250.133 325.345C251.118 325.345 251.887 324.865 252.441 323.903C253 322.942 253.279 321.553 253.279 319.734C253.279 318.527 253.151 317.507 252.896 316.673C252.645 315.835 252.283 315.201 251.809 314.77C251.34 314.334 250.782 314.116 250.133 314.116C249.153 314.116 248.383 314.599 247.825 315.565C247.266 316.531 246.984 317.921 246.98 319.734C246.98 320.946 247.105 321.972 247.356 322.81C247.612 323.643 247.974 324.275 248.443 324.706C248.911 325.132 249.475 325.345 250.133 325.345ZM258.879 327.135C258.491 327.135 258.157 326.998 257.878 326.723C257.599 326.444 257.459 326.107 257.459 325.714C257.459 325.326 257.599 324.995 257.878 324.72C258.157 324.441 258.491 324.301 258.879 324.301C259.268 324.301 259.602 324.441 259.881 324.72C260.16 324.995 260.3 325.326 260.3 325.714C260.3 325.975 260.234 326.214 260.101 326.432C259.973 326.645 259.803 326.815 259.59 326.943C259.377 327.071 259.14 327.135 258.879 327.135ZM266.877 312.455V327H264.675V314.656H264.59L261.11 316.929V314.827L264.739 312.455H266.877ZM271.301 327L277.651 314.443V314.337H270.307V312.455H279.923V314.401L273.595 327H271.301ZM282.592 312.455H285.256L289.886 323.761H290.057L294.687 312.455H297.351V327H295.263V316.474H295.128L290.838 326.979H289.105L284.815 316.467H284.68V327H282.592V312.455Z" fill="white"/>
<path d="M220.789 370.276C220.713 369.603 220.401 369.082 219.852 368.713C219.302 368.339 218.611 368.152 217.778 368.152C217.181 368.152 216.665 368.247 216.229 368.436C215.794 368.621 215.455 368.876 215.214 369.203C214.977 369.525 214.859 369.892 214.859 370.304C214.859 370.65 214.939 370.948 215.1 371.199C215.266 371.45 215.481 371.661 215.746 371.831C216.016 371.997 216.305 372.136 216.613 372.25C216.921 372.359 217.217 372.449 217.501 372.52L218.921 372.889C219.385 373.003 219.861 373.157 220.349 373.351C220.836 373.545 221.289 373.801 221.705 374.118C222.122 374.435 222.458 374.828 222.714 375.297C222.974 375.766 223.104 376.327 223.104 376.98C223.104 377.804 222.891 378.536 222.465 379.175C222.044 379.814 221.431 380.318 220.626 380.688C219.826 381.057 218.857 381.241 217.721 381.241C216.632 381.241 215.69 381.069 214.894 380.723C214.099 380.377 213.476 379.887 213.026 379.253C212.576 378.614 212.328 377.856 212.281 376.98H214.482C214.525 377.506 214.695 377.944 214.994 378.294C215.297 378.64 215.683 378.898 216.151 379.068C216.625 379.234 217.143 379.317 217.707 379.317C218.327 379.317 218.879 379.22 219.362 379.026C219.849 378.827 220.233 378.552 220.512 378.202C220.791 377.847 220.931 377.432 220.931 376.959C220.931 376.528 220.808 376.175 220.562 375.901C220.32 375.626 219.991 375.399 219.575 375.219C219.163 375.039 218.696 374.88 218.175 374.743L216.457 374.274C215.292 373.957 214.369 373.491 213.687 372.875C213.01 372.259 212.671 371.445 212.671 370.432C212.671 369.594 212.898 368.862 213.353 368.237C213.808 367.612 214.423 367.127 215.2 366.781C215.976 366.431 216.852 366.256 217.827 366.256C218.812 366.256 219.681 366.429 220.434 366.774C221.192 367.12 221.788 367.596 222.224 368.202C222.659 368.803 222.887 369.494 222.906 370.276H220.789ZM238.362 373.727C238.362 375.28 238.078 376.616 237.51 377.733C236.941 378.846 236.163 379.703 235.173 380.304C234.188 380.901 233.068 381.199 231.814 381.199C230.554 381.199 229.43 380.901 228.44 380.304C227.455 379.703 226.679 378.843 226.11 377.726C225.542 376.608 225.258 375.276 225.258 373.727C225.258 372.174 225.542 370.841 226.11 369.729C226.679 368.611 227.455 367.754 228.44 367.158C229.43 366.556 230.554 366.256 231.814 366.256C233.068 366.256 234.188 366.556 235.173 367.158C236.163 367.754 236.941 368.611 237.51 369.729C238.078 370.841 238.362 372.174 238.362 373.727ZM236.189 373.727C236.189 372.544 235.997 371.547 235.613 370.737C235.234 369.923 234.714 369.307 234.051 368.891C233.393 368.469 232.647 368.259 231.814 368.259C230.975 368.259 230.227 368.469 229.569 368.891C228.911 369.307 228.39 369.923 228.007 370.737C227.628 371.547 227.439 372.544 227.439 373.727C227.439 374.911 227.628 375.91 228.007 376.724C228.39 377.534 228.911 378.15 229.569 378.571C230.227 378.988 230.975 379.196 231.814 379.196C232.647 379.196 233.393 378.988 234.051 378.571C234.714 378.15 235.234 377.534 235.613 376.724C235.997 375.91 236.189 374.911 236.189 373.727ZM241.098 366.455H243.761L248.392 377.761H248.562L253.193 366.455H255.857V381H253.768V370.474H253.634L249.344 380.979H247.611L243.321 370.467H243.186V381H241.098V366.455ZM229.298 400.81C229.28 399.991 229.4 399.318 229.661 398.793C229.926 398.267 230.281 397.879 230.726 397.628C231.171 397.372 231.661 397.244 232.196 397.244C232.67 397.244 233.108 397.346 233.51 397.55C233.913 397.749 234.372 398.075 234.888 398.53C235.21 398.809 235.473 399.013 235.676 399.141C235.88 399.264 236.107 399.325 236.358 399.325C236.742 399.325 237.047 399.183 237.274 398.899C237.506 398.61 237.618 398.184 237.608 397.621H239.405C239.424 398.445 239.301 399.119 239.036 399.645C238.775 400.17 238.42 400.559 237.97 400.81C237.525 401.061 237.038 401.186 236.507 401.186C236.029 401.186 235.589 401.084 235.186 400.881C234.784 400.672 234.327 400.346 233.816 399.901C233.484 399.612 233.219 399.408 233.02 399.29C232.821 399.167 232.596 399.105 232.345 399.105C231.981 399.105 231.678 399.238 231.436 399.503C231.2 399.763 231.086 400.199 231.095 400.81H229.298ZM212.955 429.241C211.833 429.237 210.874 428.941 210.079 428.354C209.283 427.767 208.675 426.912 208.254 425.79C207.832 424.668 207.621 423.316 207.621 421.734C207.621 420.158 207.832 418.811 208.254 417.693C208.68 416.576 209.29 415.723 210.086 415.136C210.886 414.549 211.843 414.256 212.955 414.256C214.068 414.256 215.022 414.552 215.817 415.143C216.613 415.731 217.221 416.583 217.643 417.7C218.069 418.813 218.282 420.158 218.282 421.734C218.282 423.321 218.071 424.675 217.65 425.797C217.228 426.914 216.62 427.769 215.825 428.361C215.029 428.948 214.073 429.241 212.955 429.241ZM212.955 427.345C213.94 427.345 214.71 426.865 215.263 425.903C215.822 424.942 216.102 423.553 216.102 421.734C216.102 420.527 215.974 419.507 215.718 418.673C215.467 417.835 215.105 417.201 214.631 416.77C214.163 416.334 213.604 416.116 212.955 416.116C211.975 416.116 211.206 416.599 210.647 417.565C210.088 418.531 209.807 419.921 209.802 421.734C209.802 422.946 209.927 423.972 210.178 424.81C210.434 425.643 210.796 426.275 211.265 426.706C211.734 427.132 212.297 427.345 212.955 427.345ZM221.702 429.135C221.313 429.135 220.98 428.998 220.7 428.723C220.421 428.444 220.281 428.107 220.281 427.714C220.281 427.326 220.421 426.995 220.7 426.72C220.98 426.441 221.313 426.301 221.702 426.301C222.09 426.301 222.424 426.441 222.703 426.72C222.982 426.995 223.122 427.326 223.122 427.714C223.122 427.975 223.056 428.214 222.923 428.432C222.795 428.645 222.625 428.815 222.412 428.943C222.199 429.071 221.962 429.135 221.702 429.135ZM230.475 429.241C229.353 429.237 228.394 428.941 227.598 428.354C226.803 427.767 226.194 426.912 225.773 425.79C225.352 424.668 225.141 423.316 225.141 421.734C225.141 420.158 225.352 418.811 225.773 417.693C226.199 416.576 226.81 415.723 227.605 415.136C228.406 414.549 229.362 414.256 230.475 414.256C231.587 414.256 232.542 414.552 233.337 415.143C234.132 415.731 234.741 416.583 235.162 417.7C235.588 418.813 235.801 420.158 235.801 421.734C235.801 423.321 235.591 424.675 235.169 425.797C234.748 426.914 234.14 427.769 233.344 428.361C232.549 428.948 231.592 429.241 230.475 429.241ZM230.475 427.345C231.46 427.345 232.229 426.865 232.783 425.903C233.342 424.942 233.621 423.553 233.621 421.734C233.621 420.527 233.493 419.507 233.238 418.673C232.987 417.835 232.624 417.201 232.151 416.77C231.682 416.334 231.123 416.116 230.475 416.116C229.495 416.116 228.725 416.599 228.167 417.565C227.608 418.531 227.326 419.921 227.321 421.734C227.321 422.946 227.447 423.972 227.698 424.81C227.953 425.643 228.316 426.275 228.784 426.706C229.253 427.132 229.817 427.345 230.475 427.345ZM243.236 429.199C242.218 429.199 241.318 429.024 240.537 428.673C239.76 428.323 239.152 427.84 238.712 427.224C238.271 426.609 238.054 425.908 238.058 425.122C238.054 424.507 238.179 423.941 238.435 423.425C238.695 422.904 239.048 422.471 239.493 422.125C239.938 421.775 240.435 421.552 240.984 421.457V421.372C240.26 421.197 239.68 420.809 239.244 420.207C238.809 419.606 238.593 418.915 238.598 418.134C238.593 417.39 238.79 416.727 239.188 416.145C239.59 415.558 240.142 415.096 240.842 414.76C241.543 414.424 242.341 414.256 243.236 414.256C244.121 414.256 244.912 414.426 245.608 414.767C246.309 415.103 246.86 415.565 247.263 416.152C247.665 416.734 247.869 417.395 247.874 418.134C247.869 418.915 247.646 419.606 247.206 420.207C246.766 420.809 246.193 421.197 245.487 421.372V421.457C246.032 421.552 246.522 421.775 246.957 422.125C247.398 422.471 247.748 422.904 248.009 423.425C248.274 423.941 248.409 424.507 248.413 425.122C248.409 425.908 248.186 426.609 247.746 427.224C247.305 427.84 246.695 428.323 245.913 428.673C245.137 429.024 244.244 429.199 243.236 429.199ZM243.236 427.402C243.837 427.402 244.358 427.303 244.798 427.104C245.239 426.9 245.58 426.618 245.821 426.259C246.063 425.894 246.186 425.468 246.19 424.98C246.186 424.473 246.053 424.026 245.793 423.638C245.537 423.25 245.189 422.944 244.749 422.722C244.308 422.499 243.804 422.388 243.236 422.388C242.663 422.388 242.154 422.499 241.709 422.722C241.264 422.944 240.913 423.25 240.658 423.638C240.402 424.026 240.277 424.473 240.281 424.98C240.277 425.468 240.393 425.894 240.629 426.259C240.871 426.618 241.214 426.9 241.659 427.104C242.104 427.303 242.63 427.402 243.236 427.402ZM243.236 420.634C243.719 420.634 244.147 420.536 244.521 420.342C244.895 420.148 245.189 419.878 245.402 419.533C245.62 419.187 245.731 418.782 245.736 418.318C245.731 417.864 245.622 417.466 245.409 417.125C245.201 416.784 244.91 416.521 244.536 416.337C244.161 416.147 243.728 416.053 243.236 416.053C242.734 416.053 242.294 416.147 241.915 416.337C241.541 416.521 241.25 416.784 241.041 417.125C240.833 417.466 240.731 417.864 240.736 418.318C240.731 418.782 240.835 419.187 241.048 419.533C241.261 419.878 241.555 420.148 241.929 420.342C242.308 420.536 242.743 420.634 243.236 420.634ZM251.157 414.455H253.82L258.451 425.761H258.621L263.252 414.455H265.915V429H263.827V418.474H263.692L259.402 428.979H257.669L253.38 418.467H253.245V429H251.157V414.455Z" fill="white"/>
</svg>
