<svg width="474" height="474" viewBox="0 0 474 474" fill="none" xmlns="http://www.w3.org/2000/svg">
<circle cx="237" cy="237" r="237" fill="#771F49"/>
<circle cx="237" cy="272" r="183" fill="#BE1953"/>
<circle cx="237" cy="361" r="80" fill="#EB3355"/>
<path d="M126.759 48.0156V45.1818H143.644V48.0156H136.837V67H133.555V48.0156H126.759ZM146.64 67H143.146L150.998 45.1818H154.801L162.653 67H159.158L152.99 49.1449H152.819L146.64 67ZM147.226 58.456H158.562V61.2259H147.226V58.456ZM165.803 45.1818H169.798L176.744 62.142H177L183.946 45.1818H187.941V67H184.809V51.2116H184.607L178.172 66.968H175.572L169.138 51.201H168.935V67H165.803V45.1818ZM200.677 58.4986C200.649 57.2699 200.83 56.2614 201.221 55.473C201.618 54.6847 202.151 54.1023 202.819 53.7259C203.486 53.3423 204.221 53.1506 205.024 53.1506C205.734 53.1506 206.391 53.3033 206.995 53.6087C207.598 53.907 208.287 54.397 209.061 55.0788C209.544 55.4979 209.939 55.8033 210.244 55.995C210.549 56.1797 210.89 56.272 211.267 56.272C211.842 56.272 212.3 56.0589 212.641 55.6328C212.989 55.1996 213.156 54.5604 213.142 53.7152H215.837C215.865 54.951 215.681 55.9631 215.283 56.7514C214.892 57.5398 214.36 58.1222 213.685 58.4986C213.017 58.875 212.286 59.0632 211.49 59.0632C210.773 59.0632 210.113 58.9105 209.509 58.6051C208.905 58.2926 208.22 57.8026 207.453 57.1349C206.956 56.7017 206.558 56.3963 206.26 56.2188C205.961 56.0341 205.624 55.9418 205.248 55.9418C204.701 55.9418 204.246 56.1406 203.884 56.5384C203.529 56.929 203.358 57.5824 203.373 58.4986H200.677ZM235.884 67.3622C234.201 67.3551 232.763 66.9112 231.569 66.0305C230.376 65.1499 229.464 63.8679 228.831 62.1847C228.199 60.5014 227.883 58.4737 227.883 56.1016C227.883 53.7365 228.199 51.7159 228.831 50.0398C229.471 48.3636 230.387 47.0852 231.58 46.2045C232.78 45.3239 234.215 44.8835 235.884 44.8835C237.553 44.8835 238.984 45.3274 240.177 46.2152C241.371 47.0959 242.283 48.3743 242.915 50.0504C243.555 51.7195 243.874 53.7365 243.874 56.1016C243.874 58.4808 243.558 60.5121 242.926 62.1953C242.294 63.8714 241.381 65.1534 240.188 66.0412C238.995 66.9219 237.56 67.3622 235.884 67.3622ZM235.884 64.5178C237.361 64.5178 238.515 63.7969 239.346 62.3551C240.184 60.9134 240.604 58.8288 240.604 56.1016C240.604 54.2905 240.412 52.7599 240.028 51.5099C239.652 50.2528 239.108 49.3011 238.398 48.6548C237.695 48.0014 236.857 47.6747 235.884 47.6747C234.414 47.6747 233.26 48.3991 232.422 49.848C231.584 51.2969 231.161 53.3814 231.154 56.1016C231.154 57.9197 231.342 59.4574 231.719 60.7145C232.102 61.9645 232.645 62.9126 233.349 63.5589C234.052 64.1982 234.897 64.5178 235.884 64.5178ZM249.004 67.2024C248.421 67.2024 247.921 66.9964 247.502 66.5845C247.083 66.1655 246.873 65.6612 246.873 65.0717C246.873 64.4893 247.083 63.9922 247.502 63.5803C247.921 63.1612 248.421 62.9517 249.004 62.9517C249.586 62.9517 250.087 63.1612 250.506 63.5803C250.925 63.9922 251.134 64.4893 251.134 65.0717C251.134 65.4624 251.035 65.821 250.836 66.1477C250.644 66.4673 250.389 66.723 250.069 66.9148C249.749 67.1065 249.394 67.2024 249.004 67.2024ZM261.998 67.2983C260.471 67.2983 259.122 67.0355 257.95 66.5099C256.785 65.9844 255.873 65.2599 255.212 64.3366C254.551 63.4134 254.225 62.3622 254.232 61.1832C254.225 60.2599 254.413 59.4112 254.797 58.6371C255.187 57.8558 255.716 57.206 256.384 56.6875C257.051 56.1619 257.797 55.8281 258.621 55.6861V55.5582C257.534 55.2955 256.664 54.7131 256.011 53.8111C255.358 52.9091 255.034 51.8722 255.042 50.7003C255.034 49.5852 255.329 48.5909 255.926 47.7173C256.529 46.8366 257.357 46.1442 258.408 45.6399C259.459 45.1357 260.656 44.8835 261.998 44.8835C263.326 44.8835 264.512 45.1392 265.556 45.6506C266.608 46.1548 267.435 46.8473 268.039 47.728C268.642 48.6016 268.948 49.5923 268.955 50.7003C268.948 51.8722 268.614 52.9091 267.953 53.8111C267.293 54.7131 266.434 55.2955 265.375 55.5582V55.6861C266.192 55.8281 266.927 56.1619 267.581 56.6875C268.241 57.206 268.767 57.8558 269.157 58.6371C269.555 59.4112 269.757 60.2599 269.765 61.1832C269.757 62.3622 269.424 63.4134 268.763 64.3366C268.103 65.2599 267.186 65.9844 266.015 66.5099C264.85 67.0355 263.511 67.2983 261.998 67.2983ZM261.998 64.603C262.9 64.603 263.681 64.4538 264.342 64.1555C265.002 63.8501 265.514 63.4276 265.876 62.8878C266.238 62.3409 266.423 61.7017 266.43 60.9702C266.423 60.2102 266.224 59.5391 265.833 58.9567C265.45 58.3743 264.928 57.9162 264.267 57.5824C263.607 57.2486 262.85 57.0817 261.998 57.0817C261.139 57.0817 260.375 57.2486 259.708 57.5824C259.04 57.9162 258.515 58.3743 258.131 58.9567C257.748 59.5391 257.559 60.2102 257.566 60.9702C257.559 61.7017 257.733 62.3409 258.088 62.8878C258.451 63.4276 258.966 63.8501 259.633 64.1555C260.301 64.4538 261.089 64.603 261.998 64.603ZM261.998 54.4503C262.723 54.4503 263.365 54.3047 263.926 54.0135C264.488 53.7223 264.928 53.3175 265.248 52.799C265.574 52.2805 265.741 51.6733 265.748 50.9773C265.741 50.2955 265.578 49.6989 265.258 49.1875C264.946 48.6761 264.509 48.282 263.948 48.005C263.387 47.7209 262.737 47.5788 261.998 47.5788C261.245 47.5788 260.585 47.7209 260.017 48.005C259.456 48.282 259.019 48.6761 258.706 49.1875C258.394 49.6989 258.241 50.2955 258.248 50.9773C258.241 51.6733 258.397 52.2805 258.717 52.799C259.037 53.3175 259.477 53.7223 260.038 54.0135C260.606 54.3047 261.26 54.4503 261.998 54.4503ZM280.783 67.2983C279.448 67.2983 278.247 67.0426 277.182 66.5312C276.124 66.0128 275.279 65.3026 274.646 64.4006C274.014 63.4986 273.677 62.4688 273.634 61.3111H276.83C276.909 62.2486 277.324 63.0192 278.077 63.6229C278.83 64.2266 279.732 64.5284 280.783 64.5284C281.621 64.5284 282.363 64.3366 283.009 63.9531C283.663 63.5625 284.174 63.0263 284.544 62.3445C284.92 61.6626 285.108 60.8849 285.108 60.0114C285.108 59.1236 284.916 58.3317 284.533 57.6357C284.149 56.9396 283.62 56.3928 282.945 55.995C282.278 55.5973 281.511 55.3949 280.644 55.3878C279.984 55.3878 279.32 55.5014 278.652 55.7287C277.985 55.956 277.445 56.2543 277.033 56.6236L274.018 56.1761L275.243 45.1818H287.239V48.005H277.981L277.289 54.1094H277.416C277.843 53.6974 278.407 53.353 279.11 53.076C279.82 52.799 280.58 52.6605 281.39 52.6605C282.718 52.6605 283.901 52.9766 284.938 53.6087C285.982 54.2408 286.802 55.1037 287.399 56.1974C288.002 57.2841 288.301 58.5341 288.294 59.9474C288.301 61.3608 287.981 62.6214 287.335 63.7294C286.695 64.8374 285.808 65.7109 284.671 66.3501C283.542 66.9822 282.246 67.2983 280.783 67.2983ZM292.483 45.1818H296.478L303.424 62.142H303.68L310.626 45.1818H314.621V67H311.489V51.2116H311.286L304.852 66.968H302.252L295.817 51.201H295.615V67H292.483V45.1818ZM327.461 44.1591L320.43 70.2812H317.585L324.616 44.1591H327.461ZM328.739 45.1818H332.479L338.178 55.1001H338.412L344.112 45.1818H347.851L339.936 58.4347V67H336.655V58.4347L328.739 45.1818Z" fill="white"/>
<path d="M147.423 181.913C147.309 180.905 146.84 180.124 146.017 179.57C145.193 179.009 144.156 178.728 142.906 178.728C142.011 178.728 141.237 178.87 140.583 179.154C139.93 179.431 139.422 179.815 139.06 180.305C138.705 180.788 138.527 181.338 138.527 181.956C138.527 182.474 138.648 182.922 138.889 183.298C139.138 183.675 139.461 183.991 139.859 184.246C140.264 184.495 140.697 184.705 141.159 184.875C141.62 185.038 142.064 185.173 142.49 185.28L144.621 185.834C145.317 186.004 146.031 186.235 146.762 186.526C147.494 186.817 148.172 187.201 148.797 187.677C149.422 188.153 149.926 188.742 150.31 189.445C150.701 190.148 150.896 190.99 150.896 191.97C150.896 193.206 150.576 194.303 149.937 195.262C149.305 196.221 148.385 196.977 147.178 197.531C145.978 198.085 144.525 198.362 142.821 198.362C141.187 198.362 139.774 198.103 138.581 197.585C137.387 197.066 136.453 196.331 135.779 195.379C135.104 194.42 134.731 193.284 134.66 191.97H137.963C138.027 192.759 138.282 193.415 138.73 193.941C139.184 194.46 139.763 194.847 140.466 195.102C141.176 195.351 141.954 195.475 142.799 195.475C143.73 195.475 144.557 195.33 145.282 195.038C146.013 194.74 146.588 194.328 147.007 193.803C147.426 193.27 147.636 192.648 147.636 191.938C147.636 191.292 147.451 190.763 147.082 190.351C146.72 189.939 146.226 189.598 145.601 189.328C144.983 189.058 144.284 188.82 143.502 188.614L140.924 187.911C139.177 187.435 137.792 186.736 136.769 185.812C135.754 184.889 135.246 183.668 135.246 182.148C135.246 180.891 135.587 179.793 136.269 178.856C136.951 177.918 137.874 177.19 139.039 176.672C140.203 176.146 141.517 175.884 142.98 175.884C144.458 175.884 145.761 176.143 146.89 176.661C148.027 177.18 148.921 177.893 149.575 178.803C150.228 179.705 150.569 180.741 150.598 181.913H147.423ZM156.497 198H153.003L160.854 176.182H164.657L172.509 198H169.015L162.846 180.145H162.676L156.497 198ZM157.083 189.456H168.418V192.226H157.083V189.456ZM175.66 176.182H179.655L186.601 193.142H186.856L193.802 176.182H197.797V198H194.665V182.212H194.463L188.028 197.968H185.429L178.994 182.201H178.792V198H175.66V176.182ZM210.534 189.499C210.505 188.27 210.686 187.261 211.077 186.473C211.475 185.685 212.007 185.102 212.675 184.726C213.343 184.342 214.078 184.151 214.88 184.151C215.59 184.151 216.247 184.303 216.851 184.609C217.455 184.907 218.144 185.397 218.918 186.079C219.401 186.498 219.795 186.803 220.1 186.995C220.406 187.18 220.747 187.272 221.123 187.272C221.698 187.272 222.157 187.059 222.497 186.633C222.845 186.2 223.012 185.56 222.998 184.715H225.693C225.722 185.951 225.537 186.963 225.139 187.751C224.749 188.54 224.216 189.122 223.541 189.499C222.874 189.875 222.142 190.063 221.347 190.063C220.63 190.063 219.969 189.911 219.365 189.605C218.762 189.293 218.076 188.803 217.309 188.135C216.812 187.702 216.414 187.396 216.116 187.219C215.818 187.034 215.48 186.942 215.104 186.942C214.557 186.942 214.103 187.141 213.74 187.538C213.385 187.929 213.215 188.582 213.229 189.499H210.534ZM245.741 198.362C244.057 198.355 242.619 197.911 241.426 197.031C240.233 196.15 239.32 194.868 238.688 193.185C238.056 191.501 237.74 189.474 237.74 187.102C237.74 184.737 238.056 182.716 238.688 181.04C239.327 179.364 240.243 178.085 241.437 177.205C242.637 176.324 244.071 175.884 245.741 175.884C247.41 175.884 248.841 176.327 250.034 177.215C251.227 178.096 252.14 179.374 252.772 181.05C253.411 182.719 253.731 184.737 253.731 187.102C253.731 189.481 253.415 191.512 252.782 193.195C252.15 194.871 251.238 196.153 250.044 197.041C248.851 197.922 247.417 198.362 245.741 198.362ZM245.741 195.518C247.218 195.518 248.372 194.797 249.203 193.355C250.041 191.913 250.46 189.829 250.46 187.102C250.46 185.29 250.268 183.76 249.885 182.51C249.508 181.253 248.965 180.301 248.255 179.655C247.552 179.001 246.714 178.675 245.741 178.675C244.27 178.675 243.116 179.399 242.278 180.848C241.44 182.297 241.017 184.381 241.01 187.102C241.01 188.92 241.199 190.457 241.575 191.714C241.959 192.964 242.502 193.913 243.205 194.559C243.908 195.198 244.753 195.518 245.741 195.518ZM258.86 198.202C258.278 198.202 257.777 197.996 257.358 197.585C256.939 197.165 256.729 196.661 256.729 196.072C256.729 195.489 256.939 194.992 257.358 194.58C257.777 194.161 258.278 193.952 258.86 193.952C259.443 193.952 259.943 194.161 260.362 194.58C260.781 194.992 260.991 195.489 260.991 196.072C260.991 196.462 260.891 196.821 260.693 197.148C260.501 197.467 260.245 197.723 259.926 197.915C259.606 198.107 259.251 198.202 258.86 198.202ZM272.041 198.298C271.068 198.284 270.109 198.107 269.165 197.766C268.227 197.425 267.375 196.857 266.608 196.061C265.841 195.266 265.226 194.197 264.765 192.854C264.31 191.512 264.083 189.836 264.083 187.826C264.083 185.923 264.271 184.232 264.648 182.755C265.031 181.278 265.582 180.031 266.299 179.016C267.016 177.993 267.883 177.215 268.898 176.683C269.914 176.15 271.054 175.884 272.318 175.884C273.618 175.884 274.772 176.139 275.78 176.651C276.789 177.162 277.606 177.869 278.231 178.771C278.863 179.673 279.264 180.699 279.435 181.849H276.185C275.965 180.94 275.528 180.198 274.875 179.623C274.222 179.048 273.369 178.76 272.318 178.76C270.72 178.76 269.474 179.456 268.579 180.848C267.691 182.24 267.244 184.175 267.236 186.654H267.396C267.773 186.036 268.234 185.511 268.781 185.077C269.335 184.637 269.953 184.3 270.635 184.065C271.324 183.824 272.048 183.703 272.808 183.703C274.072 183.703 275.216 184.012 276.239 184.63C277.268 185.241 278.089 186.086 278.699 187.165C279.31 188.245 279.616 189.481 279.616 190.873C279.616 192.265 279.3 193.526 278.668 194.655C278.043 195.784 277.162 196.679 276.025 197.339C274.889 197.993 273.561 198.312 272.041 198.298ZM272.03 195.528C272.869 195.528 273.618 195.322 274.278 194.911C274.939 194.499 275.461 193.945 275.844 193.249C276.228 192.553 276.42 191.775 276.42 190.915C276.42 190.077 276.231 189.314 275.855 188.625C275.486 187.936 274.974 187.389 274.321 186.984C273.675 186.58 272.936 186.377 272.105 186.377C271.473 186.377 270.887 186.498 270.347 186.739C269.815 186.981 269.346 187.315 268.941 187.741C268.536 188.167 268.217 188.657 267.982 189.211C267.755 189.758 267.641 190.337 267.641 190.947C267.641 191.764 267.829 192.521 268.206 193.217C268.589 193.913 269.111 194.474 269.772 194.9C270.44 195.319 271.192 195.528 272.03 195.528ZM283.794 176.182H287.79L294.736 193.142H294.991L301.937 176.182H305.932V198H302.8V182.212H302.598L296.163 197.968H293.564L287.129 182.201H286.927V198H283.794V176.182ZM318.772 175.159L311.741 201.281H308.897L315.928 175.159H318.772ZM320.051 176.182H323.79L329.49 186.1H329.724L335.424 176.182H339.163L331.247 189.435V198H327.966V189.435L320.051 176.182Z" fill="white"/>
<path d="M223.789 333.276C223.713 332.603 223.401 332.082 222.852 331.713C222.302 331.339 221.611 331.152 220.778 331.152C220.181 331.152 219.665 331.247 219.229 331.436C218.794 331.621 218.455 331.876 218.214 332.203C217.977 332.525 217.859 332.892 217.859 333.304C217.859 333.65 217.939 333.948 218.1 334.199C218.266 334.45 218.481 334.661 218.746 334.831C219.016 334.997 219.305 335.136 219.613 335.25C219.921 335.359 220.217 335.449 220.501 335.52L221.921 335.889C222.385 336.003 222.861 336.157 223.349 336.351C223.836 336.545 224.289 336.801 224.705 337.118C225.122 337.435 225.458 337.828 225.714 338.297C225.974 338.766 226.104 339.327 226.104 339.98C226.104 340.804 225.891 341.536 225.465 342.175C225.044 342.814 224.431 343.318 223.626 343.688C222.826 344.057 221.857 344.241 220.721 344.241C219.632 344.241 218.69 344.069 217.894 343.723C217.099 343.377 216.476 342.887 216.026 342.253C215.576 341.614 215.328 340.856 215.281 339.98H217.482C217.525 340.506 217.695 340.944 217.994 341.294C218.297 341.64 218.683 341.898 219.151 342.068C219.625 342.234 220.143 342.317 220.707 342.317C221.327 342.317 221.879 342.22 222.362 342.026C222.849 341.827 223.233 341.552 223.512 341.202C223.791 340.847 223.931 340.432 223.931 339.959C223.931 339.528 223.808 339.175 223.562 338.901C223.32 338.626 222.991 338.399 222.575 338.219C222.163 338.039 221.696 337.88 221.175 337.743L219.457 337.274C218.292 336.957 217.369 336.491 216.687 335.875C216.01 335.259 215.671 334.445 215.671 333.432C215.671 332.594 215.898 331.862 216.353 331.237C216.808 330.612 217.423 330.127 218.2 329.781C218.976 329.431 219.852 329.256 220.827 329.256C221.812 329.256 222.681 329.429 223.434 329.774C224.192 330.12 224.788 330.596 225.224 331.202C225.659 331.803 225.887 332.494 225.906 333.276H223.789ZM241.362 336.727C241.362 338.28 241.078 339.616 240.51 340.733C239.941 341.846 239.163 342.703 238.173 343.304C237.188 343.901 236.068 344.199 234.814 344.199C233.554 344.199 232.43 343.901 231.44 343.304C230.455 342.703 229.679 341.843 229.11 340.726C228.542 339.608 228.258 338.276 228.258 336.727C228.258 335.174 228.542 333.841 229.11 332.729C229.679 331.611 230.455 330.754 231.44 330.158C232.43 329.556 233.554 329.256 234.814 329.256C236.068 329.256 237.188 329.556 238.173 330.158C239.163 330.754 239.941 331.611 240.51 332.729C241.078 333.841 241.362 335.174 241.362 336.727ZM239.189 336.727C239.189 335.544 238.997 334.547 238.613 333.737C238.234 332.923 237.714 332.307 237.051 331.891C236.393 331.469 235.647 331.259 234.814 331.259C233.975 331.259 233.227 331.469 232.569 331.891C231.911 332.307 231.39 332.923 231.007 333.737C230.628 334.547 230.439 335.544 230.439 336.727C230.439 337.911 230.628 338.91 231.007 339.724C231.39 340.534 231.911 341.15 232.569 341.571C233.227 341.988 233.975 342.196 234.814 342.196C235.647 342.196 236.393 341.988 237.051 341.571C237.714 341.15 238.234 340.534 238.613 339.724C238.997 338.91 239.189 337.911 239.189 336.727ZM244.098 329.455H246.761L251.392 340.761H251.562L256.193 329.455H258.857V344H256.768V333.474H256.634L252.344 343.979H250.611L246.321 333.467H246.186V344H244.098V329.455ZM232.298 363.81C232.28 362.991 232.4 362.318 232.661 361.793C232.926 361.267 233.281 360.879 233.726 360.628C234.171 360.372 234.661 360.244 235.196 360.244C235.67 360.244 236.108 360.346 236.51 360.55C236.913 360.749 237.372 361.075 237.888 361.53C238.21 361.809 238.473 362.013 238.676 362.141C238.88 362.264 239.107 362.325 239.358 362.325C239.742 362.325 240.047 362.183 240.274 361.899C240.506 361.61 240.618 361.184 240.608 360.621H242.405C242.424 361.445 242.301 362.119 242.036 362.645C241.775 363.17 241.42 363.559 240.97 363.81C240.525 364.061 240.038 364.186 239.507 364.186C239.029 364.186 238.589 364.084 238.186 363.881C237.784 363.672 237.327 363.346 236.816 362.901C236.484 362.612 236.219 362.408 236.02 362.29C235.821 362.167 235.596 362.105 235.345 362.105C234.981 362.105 234.678 362.238 234.436 362.503C234.2 362.763 234.086 363.199 234.095 363.81H232.298ZM207.899 392.241C206.776 392.237 205.818 391.941 205.022 391.354C204.227 390.767 203.618 389.912 203.197 388.79C202.776 387.668 202.565 386.316 202.565 384.734C202.565 383.158 202.776 381.811 203.197 380.693C203.623 379.576 204.234 378.723 205.029 378.136C205.829 377.549 206.786 377.256 207.899 377.256C209.011 377.256 209.965 377.552 210.761 378.143C211.556 378.731 212.165 379.583 212.586 380.7C213.012 381.813 213.225 383.158 213.225 384.734C213.225 386.321 213.015 387.675 212.593 388.797C212.172 389.914 211.563 390.769 210.768 391.361C209.972 391.948 209.016 392.241 207.899 392.241ZM207.899 390.345C208.883 390.345 209.653 389.865 210.207 388.903C210.766 387.942 211.045 386.553 211.045 384.734C211.045 383.527 210.917 382.507 210.661 381.673C210.41 380.835 210.048 380.201 209.575 379.77C209.106 379.334 208.547 379.116 207.899 379.116C206.919 379.116 206.149 379.599 205.59 380.565C205.032 381.531 204.75 382.921 204.745 384.734C204.745 385.946 204.871 386.972 205.122 387.81C205.377 388.643 205.74 389.275 206.208 389.706C206.677 390.132 207.24 390.345 207.899 390.345ZM216.645 392.135C216.257 392.135 215.923 391.998 215.644 391.723C215.364 391.444 215.225 391.107 215.225 390.714C215.225 390.326 215.364 389.995 215.644 389.72C215.923 389.441 216.257 389.301 216.645 389.301C217.033 389.301 217.367 389.441 217.646 389.72C217.926 389.995 218.066 390.326 218.066 390.714C218.066 390.975 217.999 391.214 217.867 391.432C217.739 391.645 217.568 391.815 217.355 391.943C217.142 392.071 216.905 392.135 216.645 392.135ZM224.642 377.455V392H222.441V379.656H222.355L218.875 381.929V379.827L222.504 377.455H224.642ZM233.378 392.199C232.488 392.199 231.688 392.028 230.977 391.688C230.272 391.342 229.709 390.868 229.287 390.267C228.866 389.666 228.641 388.979 228.612 388.207H230.743C230.795 388.832 231.072 389.346 231.574 389.749C232.076 390.151 232.677 390.352 233.378 390.352C233.937 390.352 234.432 390.224 234.862 389.969C235.298 389.708 235.639 389.351 235.885 388.896C236.136 388.442 236.262 387.923 236.262 387.341C236.262 386.749 236.134 386.221 235.878 385.757C235.622 385.293 235.27 384.929 234.82 384.663C234.375 384.398 233.863 384.263 233.286 384.259C232.845 384.259 232.403 384.334 231.958 384.486C231.512 384.637 231.153 384.836 230.878 385.082L228.868 384.784L229.685 377.455H237.682V379.337H231.51L231.048 383.406H231.134C231.418 383.132 231.794 382.902 232.263 382.717C232.736 382.533 233.243 382.44 233.783 382.44C234.668 382.44 235.457 382.651 236.148 383.072C236.844 383.494 237.391 384.069 237.789 384.798C238.191 385.523 238.39 386.356 238.385 387.298C238.39 388.241 238.177 389.081 237.746 389.82C237.32 390.558 236.728 391.141 235.97 391.567C235.218 391.988 234.353 392.199 233.378 392.199ZM241.178 377.455H243.841L248.472 388.761H248.643L253.273 377.455H255.937V392H253.849V381.474H253.714L249.424 391.979H247.691L243.401 381.467H243.266V392H241.178V377.455ZM264.497 376.773L259.809 394.188H257.913L262.6 376.773H264.497ZM265.349 377.455H267.842L271.642 384.067H271.798L275.597 377.455H278.09L272.813 386.29V392H270.626V386.29L265.349 377.455Z" fill="white"/>
</svg>
