<svg width="474" height="474" viewBox="0 0 474 474" fill="none" xmlns="http://www.w3.org/2000/svg">
<circle cx="237" cy="237" r="237" fill="#771F49"/>
<circle cx="236" cy="338" r="121" fill="#BE1953"/>
<circle cx="236" cy="386" r="63" fill="#EB3355"/>
<path d="M126.715 61.0156V58.1818H143.6V61.0156H136.793V80H133.511V61.0156H126.715ZM146.597 80H143.102L150.954 58.1818H154.757L162.609 80H159.114L152.946 62.1449H152.775L146.597 80ZM147.182 71.456H158.518V74.2259H147.182V71.456ZM165.759 58.1818H169.754L176.7 75.142H176.956L183.902 58.1818H187.897V80H184.765V64.2116H184.563L178.128 79.968H175.528L169.094 64.201H168.891V80H165.759V58.1818ZM200.633 71.4986C200.605 70.2699 200.786 69.2614 201.177 68.473C201.574 67.6847 202.107 67.1023 202.775 66.7259C203.442 66.3423 204.177 66.1506 204.98 66.1506C205.69 66.1506 206.347 66.3033 206.951 66.6087C207.554 66.907 208.243 67.397 209.017 68.0788C209.5 68.4979 209.895 68.8033 210.2 68.995C210.505 69.1797 210.846 69.272 211.223 69.272C211.798 69.272 212.256 69.0589 212.597 68.6328C212.945 68.1996 213.112 67.5604 213.098 66.7152H215.793C215.821 67.951 215.637 68.9631 215.239 69.7514C214.848 70.5398 214.316 71.1222 213.641 71.4986C212.973 71.875 212.242 72.0632 211.446 72.0632C210.729 72.0632 210.069 71.9105 209.465 71.6051C208.861 71.2926 208.176 70.8026 207.409 70.1349C206.912 69.7017 206.514 69.3963 206.216 69.2188C205.917 69.0341 205.58 68.9418 205.204 68.9418C204.657 68.9418 204.202 69.1406 203.84 69.5384C203.485 69.929 203.314 70.5824 203.329 71.4986H200.633ZM235.616 80.2983C234.089 80.2983 232.74 80.0355 231.568 79.5099C230.403 78.9844 229.491 78.2599 228.83 77.3366C228.17 76.4134 227.843 75.3622 227.85 74.1832C227.843 73.2599 228.031 72.4112 228.415 71.6371C228.805 70.8558 229.334 70.206 230.002 69.6875C230.67 69.1619 231.415 68.8281 232.239 68.6861V68.5582C231.153 68.2955 230.283 67.7131 229.629 66.8111C228.976 65.9091 228.653 64.8722 228.66 63.7003C228.653 62.5852 228.947 61.5909 229.544 60.7173C230.148 59.8366 230.975 59.1442 232.026 58.6399C233.077 58.1357 234.274 57.8835 235.616 57.8835C236.945 57.8835 238.131 58.1392 239.175 58.6506C240.226 59.1548 241.053 59.8473 241.657 60.728C242.261 61.6016 242.566 62.5923 242.573 63.7003C242.566 64.8722 242.232 65.9091 241.572 66.8111C240.911 67.7131 240.052 68.2955 238.994 68.5582V68.6861C239.81 68.8281 240.545 69.1619 241.199 69.6875C241.859 70.206 242.385 70.8558 242.775 71.6371C243.173 72.4112 243.376 73.2599 243.383 74.1832C243.376 75.3622 243.042 76.4134 242.381 77.3366C241.721 78.2599 240.805 78.9844 239.633 79.5099C238.468 80.0355 237.129 80.2983 235.616 80.2983ZM235.616 77.603C236.518 77.603 237.3 77.4538 237.96 77.1555C238.621 76.8501 239.132 76.4276 239.494 75.8878C239.856 75.3409 240.041 74.7017 240.048 73.9702C240.041 73.2102 239.842 72.5391 239.452 71.9567C239.068 71.3743 238.546 70.9162 237.886 70.5824C237.225 70.2486 236.469 70.0817 235.616 70.0817C234.757 70.0817 233.994 70.2486 233.326 70.5824C232.658 70.9162 232.133 71.3743 231.749 71.9567C231.366 72.5391 231.177 73.2102 231.185 73.9702C231.177 74.7017 231.351 75.3409 231.707 75.8878C232.069 76.4276 232.584 76.8501 233.251 77.1555C233.919 77.4538 234.707 77.603 235.616 77.603ZM235.616 67.4503C236.341 67.4503 236.984 67.3047 237.545 67.0135C238.106 66.7223 238.546 66.3175 238.866 65.799C239.192 65.2805 239.359 64.6733 239.366 63.9773C239.359 63.2955 239.196 62.6989 238.876 62.1875C238.564 61.6761 238.127 61.282 237.566 61.005C237.005 60.7209 236.355 60.5788 235.616 60.5788C234.864 60.5788 234.203 60.7209 233.635 61.005C233.074 61.282 232.637 61.6761 232.324 62.1875C232.012 62.6989 231.859 63.2955 231.866 63.9773C231.859 64.6733 232.016 65.2805 232.335 65.799C232.655 66.3175 233.095 66.7223 233.656 67.0135C234.224 67.3047 234.878 67.4503 235.616 67.4503ZM248.696 80.2024C248.114 80.2024 247.613 79.9964 247.194 79.5845C246.775 79.1655 246.565 78.6612 246.565 78.0717C246.565 77.4893 246.775 76.9922 247.194 76.5803C247.613 76.1612 248.114 75.9517 248.696 75.9517C249.278 75.9517 249.779 76.1612 250.198 76.5803C250.617 76.9922 250.827 77.4893 250.827 78.0717C250.827 78.4624 250.727 78.821 250.528 79.1477C250.337 79.4673 250.081 79.723 249.761 79.9148C249.442 80.1065 249.087 80.2024 248.696 80.2024ZM261.856 80.3622C260.172 80.3551 258.734 79.9112 257.541 79.0305C256.348 78.1499 255.435 76.8679 254.803 75.1847C254.171 73.5014 253.855 71.4737 253.855 69.1016C253.855 66.7365 254.171 64.7159 254.803 63.0398C255.442 61.3636 256.359 60.0852 257.552 59.2045C258.752 58.3239 260.187 57.8835 261.856 57.8835C263.525 57.8835 264.956 58.3274 266.149 59.2152C267.342 60.0959 268.255 61.3743 268.887 63.0504C269.526 64.7195 269.846 66.7365 269.846 69.1016C269.846 71.4808 269.53 73.5121 268.898 75.1953C268.266 76.8714 267.353 78.1534 266.16 79.0412C264.967 79.9219 263.532 80.3622 261.856 80.3622ZM261.856 77.5178C263.333 77.5178 264.487 76.7969 265.318 75.3551C266.156 73.9134 266.575 71.8288 266.575 69.1016C266.575 67.2905 266.383 65.7599 266 64.5099C265.623 63.2528 265.08 62.3011 264.37 61.6548C263.667 61.0014 262.829 60.6747 261.856 60.6747C260.386 60.6747 259.231 61.3991 258.393 62.848C257.555 64.2969 257.133 66.3814 257.126 69.1016C257.126 70.9197 257.314 72.4574 257.69 73.7145C258.074 74.9645 258.617 75.9126 259.32 76.5589C260.023 77.1982 260.869 77.5178 261.856 77.5178ZM280.827 80.2983C279.492 80.2983 278.291 80.0426 277.226 79.5312C276.168 79.0128 275.323 78.3026 274.69 77.4006C274.058 76.4986 273.721 75.4688 273.678 74.3111H276.874C276.953 75.2486 277.368 76.0192 278.121 76.6229C278.874 77.2266 279.776 77.5284 280.827 77.5284C281.665 77.5284 282.407 77.3366 283.053 76.9531C283.707 76.5625 284.218 76.0263 284.587 75.3445C284.964 74.6626 285.152 73.8849 285.152 73.0114C285.152 72.1236 284.96 71.3317 284.577 70.6357C284.193 69.9396 283.664 69.3928 282.989 68.995C282.322 68.5973 281.555 68.3949 280.688 68.3878C280.028 68.3878 279.364 68.5014 278.696 68.7287C278.028 68.956 277.489 69.2543 277.077 69.6236L274.062 69.1761L275.287 58.1818H287.283V61.005H278.025L277.332 67.1094H277.46C277.886 66.6974 278.451 66.353 279.154 66.076C279.864 65.799 280.624 65.6605 281.434 65.6605C282.762 65.6605 283.945 65.9766 284.982 66.6087C286.026 67.2408 286.846 68.1037 287.443 69.1974C288.046 70.2841 288.345 71.5341 288.337 72.9474C288.345 74.3608 288.025 75.6214 287.379 76.7294C286.739 77.8374 285.852 78.7109 284.715 79.3501C283.586 79.9822 282.29 80.2983 280.827 80.2983ZM292.527 58.1818H296.522L303.468 75.142H303.724L310.67 58.1818H314.665V80H311.533V64.2116H311.33L304.896 79.968H302.296L295.861 64.201H295.659V80H292.527V58.1818ZM327.505 57.1591L320.473 83.2812H317.629L324.66 57.1591H327.505ZM328.783 58.1818H332.522L338.222 68.1001H338.456L344.156 58.1818H347.895L339.98 71.4347V80H336.699V71.4347L328.783 58.1818Z" fill="white"/>
<path d="M172.729 274.276C172.653 273.603 172.34 273.082 171.791 272.713C171.242 272.339 170.55 272.152 169.717 272.152C169.121 272.152 168.604 272.247 168.169 272.436C167.733 272.621 167.395 272.876 167.153 273.203C166.916 273.525 166.798 273.892 166.798 274.304C166.798 274.65 166.879 274.948 167.04 275.199C167.205 275.45 167.421 275.661 167.686 275.831C167.956 275.997 168.245 276.136 168.552 276.25C168.86 276.359 169.156 276.449 169.44 276.52L170.861 276.889C171.325 277.003 171.8 277.157 172.288 277.351C172.776 277.545 173.228 277.801 173.645 278.118C174.061 278.435 174.398 278.828 174.653 279.297C174.914 279.766 175.044 280.327 175.044 280.98C175.044 281.804 174.831 282.536 174.405 283.175C173.983 283.814 173.37 284.318 172.565 284.688C171.765 285.057 170.797 285.241 169.66 285.241C168.571 285.241 167.629 285.069 166.834 284.723C166.038 284.377 165.416 283.887 164.966 283.253C164.516 282.614 164.267 281.856 164.22 280.98H166.422C166.464 281.506 166.635 281.944 166.933 282.294C167.236 282.64 167.622 282.898 168.091 283.068C168.564 283.234 169.083 283.317 169.646 283.317C170.266 283.317 170.818 283.22 171.301 283.026C171.789 282.827 172.172 282.552 172.452 282.202C172.731 281.847 172.871 281.432 172.871 280.959C172.871 280.528 172.747 280.175 172.501 279.901C172.26 279.626 171.931 279.399 171.514 279.219C171.102 279.039 170.636 278.88 170.115 278.743L168.396 278.274C167.231 277.957 166.308 277.491 165.626 276.875C164.949 276.259 164.611 275.445 164.611 274.432C164.611 273.594 164.838 272.862 165.292 272.237C165.747 271.612 166.363 271.127 167.139 270.781C167.916 270.431 168.791 270.256 169.767 270.256C170.752 270.256 171.621 270.429 172.373 270.774C173.131 271.12 173.728 271.596 174.163 272.202C174.599 272.803 174.826 273.494 174.845 274.276H172.729ZM178.778 285H176.448L181.683 270.455H184.218L189.453 285H187.123L183.011 273.097H182.897L178.778 285ZM179.169 279.304H186.725V281.151H179.169V279.304ZM191.553 270.455H194.216L198.847 281.761H199.018L203.648 270.455H206.312V285H204.224V274.474H204.089L199.799 284.979H198.066L193.776 274.467H193.641V285H191.553V270.455ZM214.802 279.332C214.783 278.513 214.904 277.841 215.165 277.315C215.43 276.79 215.785 276.402 216.23 276.151C216.675 275.895 217.165 275.767 217.7 275.767C218.174 275.767 218.612 275.869 219.014 276.072C219.416 276.271 219.876 276.598 220.392 277.053C220.714 277.332 220.977 277.536 221.18 277.663C221.384 277.786 221.611 277.848 221.862 277.848C222.246 277.848 222.551 277.706 222.778 277.422C223.01 277.133 223.122 276.707 223.112 276.143H224.909C224.928 276.967 224.805 277.642 224.54 278.168C224.279 278.693 223.924 279.081 223.474 279.332C223.029 279.583 222.541 279.709 222.011 279.709C221.533 279.709 221.093 279.607 220.69 279.403C220.288 279.195 219.831 278.868 219.319 278.423C218.988 278.134 218.723 277.931 218.524 277.812C218.325 277.689 218.1 277.628 217.849 277.628C217.485 277.628 217.182 277.76 216.94 278.026C216.703 278.286 216.59 278.722 216.599 279.332H214.802ZM238.728 270.455V285H236.526V272.656H236.441L232.961 274.929V272.827L236.59 270.455H238.728ZM243.251 285.135C242.862 285.135 242.528 284.998 242.249 284.723C241.97 284.444 241.83 284.107 241.83 283.714C241.83 283.326 241.97 282.995 242.249 282.72C242.528 282.441 242.862 282.301 243.251 282.301C243.639 282.301 243.973 282.441 244.252 282.72C244.531 282.995 244.671 283.326 244.671 283.714C244.671 283.975 244.605 284.214 244.472 284.432C244.344 284.645 244.174 284.815 243.961 284.943C243.748 285.071 243.511 285.135 243.251 285.135ZM251.914 285.199C250.896 285.199 249.996 285.024 249.215 284.673C248.438 284.323 247.83 283.84 247.389 283.224C246.949 282.609 246.731 281.908 246.736 281.122C246.731 280.507 246.857 279.941 247.112 279.425C247.373 278.904 247.726 278.471 248.171 278.125C248.616 277.775 249.113 277.552 249.662 277.457V277.372C248.938 277.197 248.358 276.809 247.922 276.207C247.486 275.606 247.271 274.915 247.276 274.134C247.271 273.39 247.468 272.727 247.865 272.145C248.268 271.558 248.819 271.096 249.52 270.76C250.221 270.424 251.019 270.256 251.914 270.256C252.799 270.256 253.59 270.426 254.286 270.767C254.986 271.103 255.538 271.565 255.941 272.152C256.343 272.734 256.547 273.395 256.551 274.134C256.547 274.915 256.324 275.606 255.884 276.207C255.443 276.809 254.87 277.197 254.165 277.372V277.457C254.709 277.552 255.2 277.775 255.635 278.125C256.075 278.471 256.426 278.904 256.686 279.425C256.951 279.941 257.086 280.507 257.091 281.122C257.086 281.908 256.864 282.609 256.423 283.224C255.983 283.84 255.372 284.323 254.591 284.673C253.815 285.024 252.922 285.199 251.914 285.199ZM251.914 283.402C252.515 283.402 253.036 283.303 253.476 283.104C253.916 282.9 254.257 282.618 254.499 282.259C254.74 281.894 254.863 281.468 254.868 280.98C254.863 280.473 254.731 280.026 254.47 279.638C254.215 279.25 253.867 278.944 253.426 278.722C252.986 278.499 252.482 278.388 251.914 278.388C251.341 278.388 250.832 278.499 250.387 278.722C249.941 278.944 249.591 279.25 249.335 279.638C249.08 280.026 248.954 280.473 248.959 280.98C248.954 281.468 249.07 281.894 249.307 282.259C249.548 282.618 249.892 282.9 250.337 283.104C250.782 283.303 251.307 283.402 251.914 283.402ZM251.914 276.634C252.396 276.634 252.825 276.536 253.199 276.342C253.573 276.148 253.867 275.878 254.08 275.533C254.298 275.187 254.409 274.782 254.414 274.318C254.409 273.864 254.3 273.466 254.087 273.125C253.878 272.784 253.587 272.521 253.213 272.337C252.839 272.147 252.406 272.053 251.914 272.053C251.412 272.053 250.971 272.147 250.593 272.337C250.218 272.521 249.927 272.784 249.719 273.125C249.511 273.466 249.409 273.864 249.414 274.318C249.409 274.782 249.513 275.187 249.726 275.533C249.939 275.878 250.233 276.148 250.607 276.342C250.985 276.536 251.421 276.634 251.914 276.634ZM260.126 285L266.475 272.443V272.337H259.131V270.455H268.748V272.401L262.42 285H260.126ZM271.416 270.455H274.08L278.71 281.761H278.881L283.512 270.455H286.175V285H284.087V274.474H283.952L279.662 284.979H277.929L273.639 274.467H273.504V285H271.416V270.455ZM294.735 269.773L290.047 287.188H288.151L292.839 269.773H294.735ZM295.587 270.455H298.08L301.88 277.067H302.036L305.836 270.455H308.329L303.052 279.29V285H300.864V279.29L295.587 270.455Z" fill="white"/>
<path d="M220.789 358.276C220.713 357.603 220.401 357.082 219.852 356.713C219.302 356.339 218.611 356.152 217.778 356.152C217.181 356.152 216.665 356.247 216.229 356.436C215.794 356.621 215.455 356.876 215.214 357.203C214.977 357.525 214.859 357.892 214.859 358.304C214.859 358.65 214.939 358.948 215.1 359.199C215.266 359.45 215.481 359.661 215.746 359.831C216.016 359.997 216.305 360.136 216.613 360.25C216.921 360.359 217.217 360.449 217.501 360.52L218.921 360.889C219.385 361.003 219.861 361.157 220.349 361.351C220.836 361.545 221.289 361.801 221.705 362.118C222.122 362.435 222.458 362.828 222.714 363.297C222.974 363.766 223.104 364.327 223.104 364.98C223.104 365.804 222.891 366.536 222.465 367.175C222.044 367.814 221.431 368.318 220.626 368.688C219.826 369.057 218.857 369.241 217.721 369.241C216.632 369.241 215.69 369.069 214.894 368.723C214.099 368.377 213.476 367.887 213.026 367.253C212.576 366.614 212.328 365.856 212.281 364.98H214.482C214.525 365.506 214.695 365.944 214.994 366.294C215.297 366.64 215.683 366.898 216.151 367.068C216.625 367.234 217.143 367.317 217.707 367.317C218.327 367.317 218.879 367.22 219.362 367.026C219.849 366.827 220.233 366.552 220.512 366.202C220.791 365.847 220.931 365.432 220.931 364.959C220.931 364.528 220.808 364.175 220.562 363.901C220.32 363.626 219.991 363.399 219.575 363.219C219.163 363.039 218.696 362.88 218.175 362.743L216.457 362.274C215.292 361.957 214.369 361.491 213.687 360.875C213.01 360.259 212.671 359.445 212.671 358.432C212.671 357.594 212.898 356.862 213.353 356.237C213.808 355.612 214.423 355.127 215.2 354.781C215.976 354.431 216.852 354.256 217.827 354.256C218.812 354.256 219.681 354.429 220.434 354.774C221.192 355.12 221.788 355.596 222.224 356.202C222.659 356.803 222.887 357.494 222.906 358.276H220.789ZM238.362 361.727C238.362 363.28 238.078 364.616 237.51 365.733C236.941 366.846 236.163 367.703 235.173 368.304C234.188 368.901 233.068 369.199 231.814 369.199C230.554 369.199 229.43 368.901 228.44 368.304C227.455 367.703 226.679 366.843 226.11 365.726C225.542 364.608 225.258 363.276 225.258 361.727C225.258 360.174 225.542 358.841 226.11 357.729C226.679 356.611 227.455 355.754 228.44 355.158C229.43 354.556 230.554 354.256 231.814 354.256C233.068 354.256 234.188 354.556 235.173 355.158C236.163 355.754 236.941 356.611 237.51 357.729C238.078 358.841 238.362 360.174 238.362 361.727ZM236.189 361.727C236.189 360.544 235.997 359.547 235.613 358.737C235.234 357.923 234.714 357.307 234.051 356.891C233.393 356.469 232.647 356.259 231.814 356.259C230.975 356.259 230.227 356.469 229.569 356.891C228.911 357.307 228.39 357.923 228.007 358.737C227.628 359.547 227.439 360.544 227.439 361.727C227.439 362.911 227.628 363.91 228.007 364.724C228.39 365.534 228.911 366.15 229.569 366.571C230.227 366.988 230.975 367.196 231.814 367.196C232.647 367.196 233.393 366.988 234.051 366.571C234.714 366.15 235.234 365.534 235.613 364.724C235.997 363.91 236.189 362.911 236.189 361.727ZM241.098 354.455H243.761L248.392 365.761H248.562L253.193 354.455H255.857V369H253.768V358.474H253.634L249.344 368.979H247.611L243.321 358.467H243.186V369H241.098V354.455ZM229.298 388.81C229.28 387.991 229.4 387.318 229.661 386.793C229.926 386.267 230.281 385.879 230.726 385.628C231.171 385.372 231.661 385.244 232.196 385.244C232.67 385.244 233.108 385.346 233.51 385.55C233.913 385.749 234.372 386.075 234.888 386.53C235.21 386.809 235.473 387.013 235.676 387.141C235.88 387.264 236.107 387.325 236.358 387.325C236.742 387.325 237.047 387.183 237.274 386.899C237.506 386.61 237.618 386.184 237.608 385.621H239.405C239.424 386.445 239.301 387.119 239.036 387.645C238.775 388.17 238.42 388.559 237.97 388.81C237.525 389.061 237.038 389.186 236.507 389.186C236.029 389.186 235.589 389.084 235.186 388.881C234.784 388.672 234.327 388.346 233.816 387.901C233.484 387.612 233.219 387.408 233.02 387.29C232.821 387.167 232.596 387.105 232.345 387.105C231.981 387.105 231.678 387.238 231.436 387.503C231.2 387.763 231.086 388.199 231.095 388.81H229.298ZM208.854 417.241C207.732 417.237 206.773 416.941 205.977 416.354C205.182 415.767 204.573 414.912 204.152 413.79C203.731 412.668 203.52 411.316 203.52 409.734C203.52 408.158 203.731 406.811 204.152 405.693C204.578 404.576 205.189 403.723 205.984 403.136C206.785 402.549 207.741 402.256 208.854 402.256C209.966 402.256 210.92 402.552 211.716 403.143C212.511 403.731 213.12 404.583 213.541 405.7C213.967 406.813 214.18 408.158 214.18 409.734C214.18 411.321 213.97 412.675 213.548 413.797C213.127 414.914 212.518 415.769 211.723 416.361C210.928 416.948 209.971 417.241 208.854 417.241ZM208.854 415.345C209.839 415.345 210.608 414.865 211.162 413.903C211.721 412.942 212 411.553 212 409.734C212 408.527 211.872 407.507 211.616 406.673C211.366 405.835 211.003 405.201 210.53 404.77C210.061 404.334 209.502 404.116 208.854 404.116C207.874 404.116 207.104 404.599 206.545 405.565C205.987 406.531 205.705 407.921 205.7 409.734C205.7 410.946 205.826 411.972 206.077 412.81C206.332 413.643 206.695 414.275 207.163 414.706C207.632 415.132 208.196 415.345 208.854 415.345ZM217.6 417.135C217.212 417.135 216.878 416.998 216.599 416.723C216.319 416.444 216.18 416.107 216.18 415.714C216.18 415.326 216.319 414.995 216.599 414.72C216.878 414.441 217.212 414.301 217.6 414.301C217.988 414.301 218.322 414.441 218.602 414.72C218.881 414.995 219.021 415.326 219.021 415.714C219.021 415.975 218.954 416.214 218.822 416.432C218.694 416.645 218.523 416.815 218.31 416.943C218.097 417.071 217.861 417.135 217.6 417.135ZM226.387 417.199C225.739 417.189 225.1 417.071 224.47 416.844C223.845 416.616 223.277 416.238 222.765 415.707C222.254 415.177 221.844 414.464 221.537 413.57C221.234 412.675 221.082 411.557 221.082 410.217C221.082 408.948 221.208 407.821 221.458 406.837C221.714 405.852 222.081 405.021 222.559 404.344C223.038 403.662 223.615 403.143 224.292 402.788C224.969 402.433 225.729 402.256 226.572 402.256C227.439 402.256 228.208 402.426 228.88 402.767C229.553 403.108 230.097 403.579 230.514 404.18C230.935 404.782 231.203 405.466 231.316 406.233H229.15C229.003 405.627 228.712 405.132 228.277 404.749C227.841 404.365 227.273 404.173 226.572 404.173C225.507 404.173 224.676 404.637 224.079 405.565C223.487 406.493 223.189 407.784 223.184 409.436H223.291C223.542 409.024 223.85 408.674 224.214 408.385C224.583 408.091 224.995 407.866 225.45 407.71C225.909 407.549 226.392 407.469 226.899 407.469C227.742 407.469 228.504 407.675 229.186 408.087C229.872 408.494 230.419 409.057 230.826 409.777C231.234 410.497 231.437 411.321 231.437 412.249C231.437 413.177 231.226 414.017 230.805 414.77C230.388 415.523 229.801 416.119 229.044 416.56C228.286 416.995 227.401 417.208 226.387 417.199ZM226.38 415.352C226.939 415.352 227.439 415.215 227.879 414.94C228.319 414.666 228.667 414.296 228.923 413.832C229.179 413.368 229.306 412.85 229.306 412.277C229.306 411.718 229.181 411.209 228.93 410.75C228.684 410.291 228.343 409.926 227.907 409.656C227.476 409.386 226.984 409.251 226.43 409.251C226.009 409.251 225.618 409.332 225.258 409.493C224.903 409.654 224.591 409.876 224.321 410.161C224.051 410.445 223.838 410.771 223.681 411.141C223.53 411.505 223.454 411.891 223.454 412.298C223.454 412.843 223.58 413.347 223.831 413.811C224.086 414.275 224.434 414.649 224.875 414.933C225.32 415.213 225.822 415.352 226.38 415.352ZM234.223 402.455H236.886L241.517 413.761H241.688L246.318 402.455H248.982V417H246.893V406.474H246.759L242.469 416.979H240.736L236.446 406.467H236.311V417H234.223V402.455ZM257.542 401.773L252.854 419.188H250.958L255.645 401.773H257.542ZM258.394 402.455H260.887L264.686 409.067H264.843L268.642 402.455H271.135L265.858 411.29V417H263.671V411.29L258.394 402.455Z" fill="white"/>
</svg>
