<svg width="474" height="474" viewBox="0 0 474 474" fill="none" xmlns="http://www.w3.org/2000/svg">
<circle cx="237" cy="237" r="237" fill="#771F49"/>
<circle cx="237" cy="272" r="183" fill="#BE1953"/>
<circle cx="236.5" cy="357.5" r="85.5" fill="#EB3355"/>
<path d="M136.355 48.0156V45.1818H153.241V48.0156H146.433V67H143.152V48.0156H136.355ZM156.237 67H152.743L160.594 45.1818H164.398L172.249 67H168.755L162.587 49.1449H162.416L156.237 67ZM156.823 58.456H168.158V61.2259H156.823V58.456ZM175.4 45.1818H179.395L186.341 62.142H186.597L193.543 45.1818H197.538V67H194.406V51.2116H194.203L187.769 66.968H185.169L178.734 51.201H178.532V67H175.4V45.1818ZM210.274 58.4986C210.245 57.2699 210.427 56.2614 210.817 55.473C211.215 54.6847 211.748 54.1023 212.415 53.7259C213.083 53.3423 213.818 53.1506 214.62 53.1506C215.331 53.1506 215.988 53.3033 216.591 53.6087C217.195 53.907 217.884 54.397 218.658 55.0788C219.141 55.4979 219.535 55.8033 219.841 55.995C220.146 56.1797 220.487 56.272 220.863 56.272C221.439 56.272 221.897 56.0589 222.238 55.6328C222.586 55.1996 222.753 54.5604 222.738 53.7152H225.434C225.462 54.951 225.277 55.9631 224.88 56.7514C224.489 57.5398 223.956 58.1222 223.282 58.4986C222.614 58.875 221.883 59.0632 221.087 59.0632C220.37 59.0632 219.709 58.9105 219.106 58.6051C218.502 58.2926 217.816 57.8026 217.049 57.1349C216.552 56.7017 216.155 56.3963 215.856 56.2188C215.558 56.0341 215.221 55.9418 214.844 55.9418C214.297 55.9418 213.843 56.1406 213.481 56.5384C213.125 56.929 212.955 57.5824 212.969 58.4986H210.274ZM237.885 67V64.6136L245.268 56.9645C246.056 56.1335 246.706 55.4055 247.217 54.7805C247.736 54.1484 248.123 53.5483 248.378 52.9801C248.634 52.4119 248.762 51.8082 248.762 51.169C248.762 50.4446 248.592 49.8196 248.251 49.294C247.91 48.7614 247.445 48.353 246.855 48.0689C246.266 47.7777 245.601 47.6321 244.863 47.6321C244.082 47.6321 243.4 47.7919 242.817 48.1115C242.235 48.4311 241.788 48.8821 241.475 49.4645C241.163 50.0469 241.006 50.7287 241.006 51.5099H237.864C237.864 50.1818 238.169 49.0206 238.78 48.0263C239.391 47.032 240.229 46.2614 241.294 45.7145C242.359 45.1605 243.57 44.8835 244.927 44.8835C246.297 44.8835 247.505 45.157 248.549 45.7038C249.6 46.2436 250.42 46.9822 251.01 47.9197C251.599 48.8501 251.894 49.9013 251.894 51.0732C251.894 51.8828 251.741 52.6747 251.436 53.4489C251.138 54.223 250.616 55.0859 249.87 56.0376C249.124 56.9822 248.087 58.1293 246.759 59.4787L242.423 64.017V64.1768H252.246V67H237.885ZM258.425 67.2024C257.842 67.2024 257.342 66.9964 256.922 66.5845C256.503 66.1655 256.294 65.6612 256.294 65.0717C256.294 64.4893 256.503 63.9922 256.922 63.5803C257.342 63.1612 257.842 62.9517 258.425 62.9517C259.007 62.9517 259.508 63.1612 259.927 63.5803C260.346 63.9922 260.555 64.4893 260.555 65.0717C260.555 65.4624 260.456 65.821 260.257 66.1477C260.065 66.4673 259.81 66.723 259.49 66.9148C259.17 67.1065 258.815 67.2024 258.425 67.2024ZM271.771 44.8835C272.744 44.8906 273.703 45.0682 274.647 45.4162C275.592 45.7642 276.444 46.3324 277.204 47.1207C277.971 47.9091 278.582 48.9744 279.036 50.3168C279.498 51.652 279.732 53.3139 279.739 55.3026C279.739 57.2131 279.548 58.9141 279.164 60.4055C278.781 61.8899 278.23 63.1435 277.513 64.1662C276.803 65.1889 275.94 65.9666 274.924 66.4993C273.908 67.032 272.765 67.2983 271.494 67.2983C270.194 67.2983 269.04 67.0426 268.031 66.5312C267.023 66.0199 266.203 65.3132 265.57 64.4112C264.938 63.5021 264.544 62.4581 264.388 61.2791H267.637C267.85 62.2166 268.283 62.9766 268.937 63.5589C269.597 64.1342 270.45 64.4219 271.494 64.4219C273.092 64.4219 274.338 63.7259 275.233 62.3338C276.128 60.9347 276.579 58.9815 276.586 56.4744H276.416C276.046 57.0852 275.585 57.6108 275.031 58.0511C274.484 58.4915 273.869 58.8324 273.188 59.0739C272.506 59.3153 271.778 59.4361 271.004 59.4361C269.747 59.4361 268.603 59.1271 267.573 58.5092C266.543 57.8913 265.723 57.0426 265.112 55.9631C264.502 54.8835 264.196 53.6513 264.196 52.2663C264.196 50.8885 264.509 49.6385 265.134 48.5163C265.766 47.3942 266.646 46.5064 267.776 45.853C268.912 45.1925 270.244 44.8693 271.771 44.8835ZM271.781 47.6534C270.95 47.6534 270.201 47.8594 269.533 48.2713C268.873 48.6761 268.351 49.2266 267.967 49.9226C267.584 50.6115 267.392 51.3786 267.392 52.2237C267.392 53.0689 267.577 53.8359 267.946 54.5249C268.323 55.2067 268.834 55.75 269.48 56.1548C270.134 56.5526 270.879 56.7514 271.717 56.7514C272.342 56.7514 272.925 56.6307 273.465 56.3892C274.004 56.1477 274.477 55.8139 274.881 55.3878C275.286 54.9545 275.602 54.4645 275.83 53.9176C276.057 53.3707 276.171 52.7955 276.171 52.1918C276.171 51.3892 275.979 50.6435 275.595 49.9545C275.219 49.2656 274.7 48.7116 274.04 48.2926C273.379 47.8665 272.627 47.6534 271.781 47.6534ZM283.886 45.1818H287.881L294.827 62.142H295.083L302.029 45.1818H306.024V67H302.892V51.2116H302.69L296.255 66.968H293.655L287.221 51.201H287.018V67H283.886V45.1818ZM318.864 44.1591L311.833 70.2812H308.988L316.02 44.1591H318.864ZM320.142 45.1818H323.882L329.581 55.1001H329.816L335.515 45.1818H339.255L331.339 58.4347V67H328.058V58.4347L320.142 45.1818Z" fill="white"/>
<path d="M147.438 181.913C147.324 180.905 146.855 180.124 146.031 179.57C145.207 179.009 144.17 178.728 142.92 178.728C142.026 178.728 141.251 178.87 140.598 179.154C139.945 179.431 139.437 179.815 139.075 180.305C138.719 180.788 138.542 181.338 138.542 181.956C138.542 182.474 138.663 182.922 138.904 183.298C139.153 183.675 139.476 183.991 139.874 184.246C140.278 184.495 140.712 184.705 141.173 184.875C141.635 185.038 142.079 185.173 142.505 185.28L144.636 185.834C145.332 186.004 146.045 186.235 146.777 186.526C147.509 186.817 148.187 187.201 148.812 187.677C149.437 188.153 149.941 188.742 150.325 189.445C150.715 190.148 150.911 190.99 150.911 191.97C150.911 193.206 150.591 194.303 149.952 195.262C149.32 196.221 148.4 196.977 147.192 197.531C145.992 198.085 144.54 198.362 142.835 198.362C141.202 198.362 139.788 198.103 138.595 197.585C137.402 197.066 136.468 196.331 135.793 195.379C135.119 194.42 134.746 193.284 134.675 191.97H137.977C138.041 192.759 138.297 193.415 138.744 193.941C139.199 194.46 139.778 194.847 140.481 195.102C141.191 195.351 141.969 195.475 142.814 195.475C143.744 195.475 144.572 195.33 145.296 195.038C146.028 194.74 146.603 194.328 147.022 193.803C147.441 193.27 147.651 192.648 147.651 191.938C147.651 191.292 147.466 190.763 147.097 190.351C146.734 189.939 146.241 189.598 145.616 189.328C144.998 189.058 144.298 188.82 143.517 188.614L140.939 187.911C139.192 187.435 137.807 186.736 136.784 185.812C135.768 184.889 135.261 183.668 135.261 182.148C135.261 180.891 135.602 179.793 136.283 178.856C136.965 177.918 137.888 177.19 139.053 176.672C140.218 176.146 141.532 175.884 142.995 175.884C144.472 175.884 145.776 176.143 146.905 176.661C148.041 177.18 148.936 177.893 149.589 178.803C150.243 179.705 150.584 180.741 150.612 181.913H147.438ZM156.512 198H153.017L160.869 176.182H164.672L172.524 198H169.029L162.861 180.145H162.691L156.512 198ZM157.097 189.456H168.433V192.226H157.097V189.456ZM175.674 176.182H179.669L186.615 193.142H186.871L193.817 176.182H197.812V198H194.68V182.212H194.478L188.043 197.968H185.444L179.009 182.201H178.806V198H175.674V176.182ZM210.548 189.499C210.52 188.27 210.701 187.261 211.092 186.473C211.489 185.685 212.022 185.102 212.69 184.726C213.357 184.342 214.092 184.151 214.895 184.151C215.605 184.151 216.262 184.303 216.866 184.609C217.469 184.907 218.158 185.397 218.933 186.079C219.415 186.498 219.81 186.803 220.115 186.995C220.42 187.18 220.761 187.272 221.138 187.272C221.713 187.272 222.171 187.059 222.512 186.633C222.86 186.2 223.027 185.56 223.013 184.715H225.708C225.737 185.951 225.552 186.963 225.154 187.751C224.763 188.54 224.231 189.122 223.556 189.499C222.888 189.875 222.157 190.063 221.362 190.063C220.644 190.063 219.984 189.911 219.38 189.605C218.776 189.293 218.091 188.803 217.324 188.135C216.827 187.702 216.429 187.396 216.131 187.219C215.832 187.034 215.495 186.942 215.119 186.942C214.572 186.942 214.117 187.141 213.755 187.538C213.4 187.929 213.229 188.582 213.244 189.499H210.548ZM245.755 198.362C244.072 198.355 242.634 197.911 241.441 197.031C240.247 196.15 239.335 194.868 238.703 193.185C238.07 191.501 237.754 189.474 237.754 187.102C237.754 184.737 238.07 182.716 238.703 181.04C239.342 179.364 240.258 178.085 241.451 177.205C242.651 176.324 244.086 175.884 245.755 175.884C247.424 175.884 248.855 176.327 250.048 177.215C251.242 178.096 252.154 179.374 252.786 181.05C253.426 182.719 253.745 184.737 253.745 187.102C253.745 189.481 253.429 191.512 252.797 193.195C252.165 194.871 251.252 196.153 250.059 197.041C248.866 197.922 247.431 198.362 245.755 198.362ZM245.755 195.518C247.232 195.518 248.387 194.797 249.218 193.355C250.056 191.913 250.475 189.829 250.475 187.102C250.475 185.29 250.283 183.76 249.899 182.51C249.523 181.253 248.98 180.301 248.269 179.655C247.566 179.001 246.728 178.675 245.755 178.675C244.285 178.675 243.131 179.399 242.293 180.848C241.455 182.297 241.032 184.381 241.025 187.102C241.025 188.92 241.213 190.457 241.59 191.714C241.973 192.964 242.517 193.913 243.22 194.559C243.923 195.198 244.768 195.518 245.755 195.518ZM258.875 198.202C258.292 198.202 257.792 197.996 257.373 197.585C256.954 197.165 256.744 196.661 256.744 196.072C256.744 195.489 256.954 194.992 257.373 194.58C257.792 194.161 258.292 193.952 258.875 193.952C259.457 193.952 259.958 194.161 260.377 194.58C260.796 194.992 261.006 195.489 261.006 196.072C261.006 196.462 260.906 196.821 260.707 197.148C260.515 197.467 260.26 197.723 259.94 197.915C259.621 198.107 259.265 198.202 258.875 198.202ZM272.08 198.298C270.744 198.298 269.544 198.043 268.479 197.531C267.421 197.013 266.575 196.303 265.943 195.401C265.311 194.499 264.974 193.469 264.931 192.311H268.127C268.205 193.249 268.621 194.019 269.374 194.623C270.127 195.227 271.029 195.528 272.08 195.528C272.918 195.528 273.66 195.337 274.306 194.953C274.96 194.562 275.471 194.026 275.84 193.344C276.217 192.663 276.405 191.885 276.405 191.011C276.405 190.124 276.213 189.332 275.83 188.636C275.446 187.94 274.917 187.393 274.242 186.995C273.575 186.597 272.808 186.395 271.941 186.388C271.281 186.388 270.617 186.501 269.949 186.729C269.281 186.956 268.742 187.254 268.33 187.624L265.315 187.176L266.54 176.182H278.536V179.005H269.278L268.585 185.109H268.713C269.139 184.697 269.704 184.353 270.407 184.076C271.117 183.799 271.877 183.661 272.687 183.661C274.015 183.661 275.198 183.977 276.235 184.609C277.279 185.241 278.099 186.104 278.695 187.197C279.299 188.284 279.597 189.534 279.59 190.947C279.597 192.361 279.278 193.621 278.632 194.729C277.992 195.837 277.105 196.711 275.968 197.35C274.839 197.982 273.543 198.298 272.08 198.298ZM283.78 176.182H287.775L294.721 193.142H294.977L301.923 176.182H305.918V198H302.786V182.212H302.583L296.148 197.968H293.549L287.114 182.201H286.912V198H283.78V176.182ZM318.758 175.159L311.726 201.281H308.882L315.913 175.159H318.758ZM320.036 176.182H323.775L329.475 186.1H329.709L335.409 176.182H339.148L331.233 189.435V198H327.952V189.435L320.036 176.182Z" fill="white"/>
<path d="M212.684 311.913C212.57 310.905 212.101 310.124 211.277 309.57C210.453 309.009 209.417 308.728 208.167 308.728C207.272 308.728 206.498 308.87 205.844 309.154C205.191 309.431 204.683 309.815 204.321 310.305C203.966 310.788 203.788 311.338 203.788 311.956C203.788 312.474 203.909 312.922 204.15 313.298C204.399 313.675 204.722 313.991 205.12 314.246C205.525 314.495 205.958 314.705 206.419 314.875C206.881 315.038 207.325 315.173 207.751 315.28L209.882 315.834C210.578 316.004 211.292 316.235 212.023 316.526C212.755 316.817 213.433 317.201 214.058 317.677C214.683 318.153 215.187 318.742 215.571 319.445C215.961 320.148 216.157 320.99 216.157 321.97C216.157 323.206 215.837 324.303 215.198 325.262C214.566 326.221 213.646 326.977 212.439 327.531C211.238 328.085 209.786 328.362 208.081 328.362C206.448 328.362 205.034 328.103 203.841 327.585C202.648 327.066 201.714 326.331 201.039 325.379C200.365 324.42 199.992 323.284 199.921 321.97H203.223C203.287 322.759 203.543 323.415 203.99 323.941C204.445 324.46 205.024 324.847 205.727 325.102C206.437 325.351 207.215 325.475 208.06 325.475C208.99 325.475 209.818 325.33 210.542 325.038C211.274 324.74 211.849 324.328 212.268 323.803C212.687 323.27 212.897 322.648 212.897 321.938C212.897 321.292 212.712 320.763 212.343 320.351C211.98 319.939 211.487 319.598 210.862 319.328C210.244 319.058 209.544 318.82 208.763 318.614L206.185 317.911C204.438 317.435 203.053 316.736 202.03 315.812C201.015 314.889 200.507 313.668 200.507 312.148C200.507 310.891 200.848 309.793 201.529 308.856C202.211 307.918 203.135 307.19 204.299 306.672C205.464 306.146 206.778 305.884 208.241 305.884C209.718 305.884 211.022 306.143 212.151 306.661C213.287 307.18 214.182 307.893 214.836 308.803C215.489 309.705 215.83 310.741 215.858 311.913H212.684ZM239.043 317.091C239.043 319.42 238.617 321.423 237.764 323.099C236.912 324.768 235.744 326.054 234.259 326.956C232.782 327.851 231.102 328.298 229.22 328.298C227.331 328.298 225.644 327.851 224.16 326.956C222.683 326.054 221.518 324.765 220.666 323.089C219.813 321.413 219.387 319.413 219.387 317.091C219.387 314.761 219.813 312.762 220.666 311.093C221.518 309.417 222.683 308.131 224.16 307.237C225.644 306.335 227.331 305.884 229.22 305.884C231.102 305.884 232.782 306.335 234.259 307.237C235.744 308.131 236.912 309.417 237.764 311.093C238.617 312.762 239.043 314.761 239.043 317.091ZM235.783 317.091C235.783 315.315 235.495 313.82 234.92 312.606C234.352 311.384 233.57 310.461 232.576 309.836C231.589 309.204 230.47 308.888 229.22 308.888C227.963 308.888 226.841 309.204 225.854 309.836C224.867 310.461 224.085 311.384 223.51 312.606C222.942 313.82 222.658 315.315 222.658 317.091C222.658 318.866 222.942 320.365 223.51 321.587C224.085 322.801 224.867 323.724 225.854 324.357C226.841 324.982 227.963 325.294 229.22 325.294C230.47 325.294 231.589 324.982 232.576 324.357C233.57 323.724 234.352 322.801 234.92 321.587C235.495 320.365 235.783 318.866 235.783 317.091ZM243.147 306.182H247.142L254.088 323.142H254.344L261.29 306.182H265.285V328H262.153V312.212H261.95L255.516 327.968H252.916L246.482 312.201H246.279V328H243.147V306.182ZM225.448 357.714C225.419 356.486 225.6 355.477 225.991 354.689C226.389 353.901 226.921 353.318 227.589 352.942C228.257 352.558 228.992 352.366 229.794 352.366C230.505 352.366 231.161 352.519 231.765 352.825C232.369 353.123 233.058 353.613 233.832 354.295C234.315 354.714 234.709 355.019 235.014 355.211C235.32 355.396 235.661 355.488 236.037 355.488C236.612 355.488 237.071 355.275 237.411 354.849C237.759 354.415 237.926 353.776 237.912 352.931H240.608C240.636 354.167 240.451 355.179 240.054 355.967C239.663 356.756 239.13 357.338 238.456 357.714C237.788 358.091 237.056 358.279 236.261 358.279C235.544 358.279 234.883 358.126 234.279 357.821C233.676 357.509 232.99 357.018 232.223 356.351C231.726 355.918 231.328 355.612 231.03 355.435C230.732 355.25 230.394 355.158 230.018 355.158C229.471 355.158 229.017 355.357 228.654 355.754C228.299 356.145 228.129 356.798 228.143 357.714H225.448ZM198.15 400.362C196.466 400.355 195.028 399.911 193.835 399.031C192.642 398.15 191.729 396.868 191.097 395.185C190.465 393.501 190.149 391.474 190.149 389.102C190.149 386.737 190.465 384.716 191.097 383.04C191.736 381.364 192.653 380.085 193.846 379.205C195.046 378.324 196.481 377.884 198.15 377.884C199.819 377.884 201.25 378.327 202.443 379.215C203.636 380.096 204.549 381.374 205.181 383.05C205.82 384.719 206.14 386.737 206.14 389.102C206.14 391.481 205.824 393.512 205.192 395.195C204.559 396.871 203.647 398.153 202.454 399.041C201.26 399.922 199.826 400.362 198.15 400.362ZM198.15 397.518C199.627 397.518 200.781 396.797 201.612 395.355C202.45 393.913 202.869 391.829 202.869 389.102C202.869 387.29 202.677 385.76 202.294 384.51C201.917 383.253 201.374 382.301 200.664 381.655C199.961 381.001 199.123 380.675 198.15 380.675C196.68 380.675 195.525 381.399 194.687 382.848C193.849 384.297 193.427 386.381 193.42 389.102C193.42 390.92 193.608 392.457 193.984 393.714C194.368 394.964 194.911 395.913 195.614 396.559C196.317 397.198 197.162 397.518 198.15 397.518ZM211.269 400.202C210.687 400.202 210.186 399.996 209.767 399.585C209.348 399.165 209.139 398.661 209.139 398.072C209.139 397.489 209.348 396.992 209.767 396.58C210.186 396.161 210.687 395.952 211.269 395.952C211.852 395.952 212.352 396.161 212.771 396.58C213.191 396.992 213.4 397.489 213.4 398.072C213.4 398.462 213.301 398.821 213.102 399.148C212.91 399.467 212.654 399.723 212.335 399.915C212.015 400.107 211.66 400.202 211.269 400.202ZM223.265 378.182V400H219.963V381.484H219.835L214.615 384.893V381.74L220.058 378.182H223.265ZM229.465 378.182H233.46L240.406 395.142H240.662L247.608 378.182H251.603V400H248.471V384.212H248.269L241.834 399.968H239.235L232.8 384.201H232.597V400H229.465V378.182ZM264.443 377.159L257.412 403.281H254.567L261.599 377.159H264.443ZM265.722 378.182H269.461L275.161 388.1H275.395L281.094 378.182H284.834L276.918 391.435V400H273.637V391.435L265.722 378.182Z" fill="white"/>
</svg>
