<svg width="451" height="781" viewBox="0 0 451 781" fill="none" xmlns="http://www.w3.org/2000/svg">
<g clip-path="url(#clip0_2392_741)">
<rect width="451" height="781" fill="#DC3453"/>
<path d="M211.002 500C427.502 415.041 463.531 340 511.501 268V897.5C511.501 907 174.898 844 155.298 844H-30.7024C-45.2024 844 -58.7027 831.5 -58.7027 817V797C-59.3693 792 -19.499 789 -19.4993 751C-19.5002 620 135.502 529.628 211.002 500Z" fill="#BE1953"/>
<path d="M-26.5 -8H469.5V56C427.5 147 277.5 157.214 182.5 177.5C41.5 207.609 -17 243 -48 274L-107 222L-26.5 -8Z" fill="#771F49"/>
</g>
<defs>
<clipPath id="clip0_2392_741">
<rect width="451" height="781" fill="white"/>
</clipPath>
</defs>
</svg>
