<svg width="29" height="29" viewBox="0 0 29 29" fill="none" xmlns="http://www.w3.org/2000/svg">
<g clip-path="url(#clip0_1562_255)">
<path d="M14.5 0C22.5113 0 29 6.48875 29 14.5C28.9992 17.5381 28.0457 20.4995 26.2737 22.9673C24.5017 25.4351 22.0004 27.2851 19.1219 28.2569C18.3969 28.4019 18.125 27.9487 18.125 27.5681C18.125 27.0787 18.1431 25.52 18.1431 23.5806C18.1431 22.2212 17.69 21.3512 17.1644 20.8981C20.3906 20.5356 23.78 19.3031 23.78 13.7387C23.78 12.1437 23.2181 10.8569 22.2938 9.84187C22.4388 9.47937 22.9463 7.99312 22.1488 5.99937C22.1488 5.99937 20.9344 5.60063 18.1613 7.48562C17.0013 7.15937 15.7688 6.99625 14.5363 6.99625C13.3038 6.99625 12.0713 7.15937 10.9113 7.48562C8.13813 5.61875 6.92375 5.99937 6.92375 5.99937C6.12625 7.99312 6.63375 9.47937 6.77875 9.84187C5.85438 10.8569 5.2925 12.1619 5.2925 13.7387C5.2925 19.285 8.66375 20.5356 11.89 20.8981C11.4731 21.2606 11.0925 21.895 10.9656 22.8375C10.1319 23.2181 8.0475 23.8344 6.7425 21.6412C6.47063 21.2062 5.655 20.1369 4.51313 20.155C3.29875 20.1731 4.02375 20.8437 4.53125 21.1156C5.1475 21.46 5.85438 22.7469 6.0175 23.1637C6.3075 23.9794 7.25 25.5381 10.8931 24.8675C10.8931 26.0819 10.9113 27.2237 10.9113 27.5681C10.9113 27.9487 10.6394 28.3837 9.91438 28.2569C7.02641 27.2956 4.51446 25.4493 2.73486 22.98C0.955272 20.5107 -0.00159587 17.5437 1.99794e-06 14.5C1.99794e-06 6.48875 6.48875 0 14.5 0Z" fill="#F0D9E4"/>
</g>
<defs>
<clipPath id="clip0_1562_255">
<rect width="29" height="29" fill="white"/>
</clipPath>
</defs>
</svg>
