<svg width="31" height="31" viewBox="0 0 31 31" fill="none" xmlns="http://www.w3.org/2000/svg">
<path d="M26.8931 1.9375H4.25523C3.01826 1.9375 1.9375 2.82754 1.9375 4.04998V26.7381C1.9375 27.9672 3.01826 29.0625 4.25523 29.0625H26.8864C28.1301 29.0625 29.0625 27.9599 29.0625 26.7381V4.04998C29.0698 2.82754 28.1301 1.9375 26.8931 1.9375ZM10.3456 24.5475H6.45975V12.4654H10.3456V24.5475ZM8.53711 10.6284H8.50926C7.26562 10.6284 6.46035 9.70264 6.46035 8.54377C6.46035 7.36371 7.28682 6.45975 8.5583 6.45975C9.82979 6.45975 10.6078 7.35705 10.6357 8.54377C10.6351 9.70264 9.82979 10.6284 8.53711 10.6284ZM24.5475 24.5475H20.6616V17.9412C20.6616 16.3586 20.0961 15.2772 18.6902 15.2772C17.6161 15.2772 16.9804 16.0038 16.6976 16.7115C16.5917 16.9658 16.5632 17.3122 16.5632 17.6658V24.5475H12.6773V12.4654H16.5632V14.1468C17.1287 13.3415 18.0121 12.1826 20.0677 12.1826C22.6185 12.1826 24.5481 13.864 24.5481 17.489L24.5475 24.5475Z" fill="#F0D9E4"/>
</svg>
