<svg width="948" height="325" viewBox="0 0 948 325" fill="none" xmlns="http://www.w3.org/2000/svg">
<g clip-path="url(#clip0_1890_83)">
<path d="M337.773 197.578C337.773 202.331 336.797 206.79 334.844 210.957C332.956 215.124 330.384 218.77 327.129 221.895C323.939 225.02 320.195 227.493 315.898 229.316C311.667 231.074 307.174 231.953 302.422 231.953H292.363C287.611 231.953 283.086 231.074 278.789 229.316C274.557 227.493 270.814 225.02 267.559 221.895C264.368 218.77 261.797 215.124 259.844 210.957C257.956 206.79 257.012 202.331 257.012 197.578V192.012L269.609 189.961V197.578C269.609 200.703 270.228 203.633 271.465 206.367C272.767 209.036 274.492 211.413 276.641 213.496C278.789 215.514 281.263 217.109 284.062 218.281C286.927 219.453 289.922 220.039 293.047 220.039H301.836C304.961 220.039 307.923 219.453 310.723 218.281C313.522 217.109 315.996 215.514 318.145 213.496C320.293 211.413 321.986 209.036 323.223 206.367C324.525 203.633 325.176 200.703 325.176 197.578V193.379C325.176 188.561 324.232 184.557 322.344 181.367C320.456 178.177 317.949 175.475 314.824 173.262C311.699 170.983 308.151 169.062 304.18 167.5C300.273 165.938 296.237 164.375 292.07 162.812C287.904 161.25 283.835 159.525 279.863 157.637C275.957 155.749 272.441 153.405 269.316 150.605C266.191 147.741 263.685 144.258 261.797 140.156C259.909 136.055 258.965 131.009 258.965 125.02V122.383C258.965 117.63 259.844 113.171 261.602 109.004C263.424 104.837 265.898 101.191 269.023 98.0664C272.148 94.9414 275.794 92.5 279.961 90.7422C284.193 88.9193 288.685 88.0078 293.438 88.0078H302.422C307.174 88.0078 311.634 88.9193 315.801 90.7422C319.967 92.5 323.613 94.9414 326.738 98.0664C329.863 101.191 332.305 104.837 334.062 109.004C335.885 113.171 336.797 117.63 336.797 122.383V125.996L324.199 128.047V122.383C324.199 119.258 323.613 116.361 322.441 113.691C321.27 110.957 319.674 108.581 317.656 106.562C315.638 104.544 313.262 102.949 310.527 101.777C307.858 100.605 304.961 100.02 301.836 100.02H294.023C290.898 100.02 287.969 100.605 285.234 101.777C282.565 102.949 280.189 104.544 278.105 106.562C276.087 108.581 274.492 110.957 273.32 113.691C272.148 116.361 271.562 119.258 271.562 122.383V125.02C271.562 129.512 272.507 133.288 274.395 136.348C276.283 139.408 278.789 142.044 281.914 144.258C285.039 146.406 288.555 148.294 292.461 149.922C296.432 151.484 300.501 153.112 304.668 154.805C308.835 156.432 312.871 158.255 316.777 160.273C320.749 162.227 324.297 164.668 327.422 167.598C330.547 170.462 333.053 173.978 334.941 178.145C336.829 182.311 337.773 187.389 337.773 193.379V197.578ZM443.73 141.816C443.73 146.569 442.819 151.029 440.996 155.195C439.238 159.362 436.797 163.008 433.672 166.133C430.547 169.258 426.868 171.732 422.637 173.555C418.47 175.312 414.01 176.191 409.258 176.191H377.52V230H364.922V89.9609H409.258C414.01 89.9609 418.47 90.8724 422.637 92.6953C426.868 94.4531 430.547 96.8945 433.672 100.02C436.797 103.145 439.238 106.823 440.996 111.055C442.819 115.221 443.73 119.681 443.73 124.434V141.816ZM431.133 124.434C431.133 121.309 430.547 118.411 429.375 115.742C428.203 113.008 426.576 110.632 424.492 108.613C422.474 106.53 420.098 104.902 417.363 103.73C414.694 102.559 411.797 101.973 408.672 101.973H377.52V164.18H408.672C411.797 164.18 414.694 163.594 417.363 162.422C420.098 161.25 422.474 159.655 424.492 157.637C426.576 155.618 428.203 153.275 429.375 150.605C430.547 147.871 431.133 144.941 431.133 141.816V124.434ZM544.609 197.578C544.609 202.331 543.698 206.79 541.875 210.957C540.117 215.124 537.676 218.77 534.551 221.895C531.426 225.02 527.78 227.493 523.613 229.316C519.447 231.074 514.987 231.953 510.234 231.953H500.273C495.521 231.953 491.029 231.074 486.797 229.316C482.63 227.493 478.984 225.02 475.859 221.895C472.734 218.77 470.26 215.124 468.438 210.957C466.68 206.79 465.801 202.331 465.801 197.578V122.383C465.801 117.63 466.68 113.171 468.438 109.004C470.26 104.837 472.734 101.191 475.859 98.0664C478.984 94.9414 482.63 92.5 486.797 90.7422C491.029 88.9193 495.521 88.0078 500.273 88.0078H510.234C514.987 88.0078 519.447 88.9193 523.613 90.7422C527.78 92.5 531.426 94.9414 534.551 98.0664C537.676 101.191 540.117 104.837 541.875 109.004C543.698 113.171 544.609 117.63 544.609 122.383V197.578ZM532.012 122.383C532.012 119.258 531.426 116.361 530.254 113.691C529.082 110.957 527.487 108.581 525.469 106.562C523.451 104.544 521.074 102.949 518.34 101.777C515.671 100.605 512.773 100.02 509.648 100.02H500.859C497.734 100.02 494.805 100.605 492.07 101.777C489.401 102.949 487.025 104.544 484.941 106.562C482.923 108.581 481.328 110.957 480.156 113.691C478.984 116.361 478.398 119.258 478.398 122.383V197.578C478.398 200.703 478.984 203.633 480.156 206.367C481.328 209.036 482.923 211.413 484.941 213.496C487.025 215.514 489.401 217.109 492.07 218.281C494.805 219.453 497.734 220.039 500.859 220.039H509.648C512.773 220.039 515.671 219.453 518.34 218.281C521.074 217.109 523.451 215.514 525.469 213.496C527.487 211.413 529.082 209.036 530.254 206.367C531.426 203.633 532.012 200.703 532.012 197.578V122.383ZM608.672 101.973V230H596.074V101.973H562.676V89.9609H642.07V101.973H608.672ZM660.137 230V89.9609H672.734V217.988H726.348V230H660.137ZM823.125 197.578C823.125 202.331 822.214 206.79 820.391 210.957C818.633 215.124 816.191 218.77 813.066 221.895C809.941 225.02 806.296 227.493 802.129 229.316C797.962 231.074 793.503 231.953 788.75 231.953H778.789C774.036 231.953 769.544 231.074 765.312 229.316C761.146 227.493 757.5 225.02 754.375 221.895C751.25 218.77 748.776 215.124 746.953 210.957C745.195 206.79 744.316 202.331 744.316 197.578V122.383C744.316 117.63 745.195 113.171 746.953 109.004C748.776 104.837 751.25 101.191 754.375 98.0664C757.5 94.9414 761.146 92.5 765.312 90.7422C769.544 88.9193 774.036 88.0078 778.789 88.0078H788.75C793.503 88.0078 797.962 88.9193 802.129 90.7422C806.296 92.5 809.941 94.9414 813.066 98.0664C816.191 101.191 818.633 104.837 820.391 109.004C822.214 113.171 823.125 117.63 823.125 122.383V197.578ZM810.527 122.383C810.527 119.258 809.941 116.361 808.77 113.691C807.598 110.957 806.003 108.581 803.984 106.562C801.966 104.544 799.59 102.949 796.855 101.777C794.186 100.605 791.289 100.02 788.164 100.02H779.375C776.25 100.02 773.32 100.605 770.586 101.777C767.917 102.949 765.54 104.544 763.457 106.562C761.439 108.581 759.844 110.957 758.672 113.691C757.5 116.361 756.914 119.258 756.914 122.383V197.578C756.914 200.703 757.5 203.633 758.672 206.367C759.844 209.036 761.439 211.413 763.457 213.496C765.54 215.514 767.917 217.109 770.586 218.281C773.32 219.453 776.25 220.039 779.375 220.039H788.164C791.289 220.039 794.186 219.453 796.855 218.281C799.59 217.109 801.966 215.514 803.984 213.496C806.003 211.413 807.598 209.036 808.77 206.367C809.941 203.633 810.527 200.703 810.527 197.578V122.383ZM929.961 197.578C929.961 202.331 929.049 206.79 927.227 210.957C925.469 215.124 923.027 218.77 919.902 221.895C916.777 225.02 913.132 227.493 908.965 229.316C904.798 231.074 900.339 231.953 895.586 231.953H885.625C880.872 231.953 876.38 231.074 872.148 229.316C867.982 227.493 864.336 225.02 861.211 221.895C858.086 218.77 855.612 215.124 853.789 210.957C852.031 206.79 851.152 202.331 851.152 197.578V122.383C851.152 117.63 852.031 113.171 853.789 109.004C855.612 104.837 858.086 101.191 861.211 98.0664C864.336 94.9414 867.982 92.5 872.148 90.7422C876.38 88.9193 880.872 88.0078 885.625 88.0078H895.586C900.339 88.0078 904.798 88.9193 908.965 90.7422C913.132 92.5 916.777 94.9414 919.902 98.0664C923.027 101.191 925.469 104.837 927.227 109.004C929.049 113.171 929.961 117.63 929.961 122.383V128.047L917.363 130V122.383C917.363 119.258 916.777 116.361 915.605 113.691C914.434 110.957 912.839 108.581 910.82 106.562C908.802 104.544 906.426 102.949 903.691 101.777C901.022 100.605 898.125 100.02 895 100.02H886.211C883.086 100.02 880.156 100.605 877.422 101.777C874.753 102.949 872.376 104.544 870.293 106.562C868.275 108.581 866.68 110.957 865.508 113.691C864.336 116.361 863.75 119.258 863.75 122.383V197.578C863.75 200.703 864.336 203.633 865.508 206.367C866.68 209.036 868.275 211.413 870.293 213.496C872.376 215.514 874.753 217.109 877.422 218.281C880.156 219.453 883.086 220.039 886.211 220.039H895C898.125 220.039 901.022 219.453 903.691 218.281C906.426 217.109 908.802 215.514 910.82 213.496C912.839 211.413 914.434 209.036 915.605 206.367C916.777 203.633 917.363 200.703 917.363 197.578V189.961L929.961 192.012V197.578Z" fill="#BE1953"/>
<path d="M117.523 71.244C116.244 62.2785 108.463 57.3688 104.732 56.0347C95.1364 53.633 87.9429 57.2356 83.9453 63.2391C79.9478 69.2425 79.1488 78.7685 84.7448 85.1724C87.5155 88.3431 91.9385 91.2561 96.737 93.6576C103.931 97.2578 117.522 103.264 125.516 106.786C129.285 108.367 132.772 109.933 136 111.475C161.289 123.561 170.715 134.233 175.742 139.924L175.885 140.086C181.507 146.45 186.278 153.695 189.58 160.899C193.803 170.114 196.889 179.116 197.907 192C198.145 195.012 198.27 198.236 198.27 201.724C198.27 228.14 185.479 248.82 177.484 260.16C167.89 273.768 135.911 306.589 100.415 325C62.8392 306.589 31.0973 273.768 20.7868 260.16C19.4389 258.381 18.0881 256.493 16.7584 254.5C7.91628 241.251 0.000400364 223.4 0.000400365 202.525C-0.00306933 197.722 -0.00312382 193.719 0.867594 186.702C2.16232 178.358 4.67393 169.683 8.07572 162.253C11.9935 153.695 15.19 148.892 25.5802 136.884C46.3696 159.298 60.7602 165.462 76.7497 174.507C63.955 184.914 65.6576 191.252 65.5539 197.722C65.5539 207.328 68.4482 213.432 72.4454 218.935C73.6121 220.541 75.0557 222.15 76.7497 223.664C81.5805 227.981 88.4476 231.529 96.737 232.063C101.114 232.344 105.568 231.77 109.365 230.542C114.177 228.985 118.319 226.539 121.997 223.129C124.557 220.755 126.675 218.058 128.281 215.21C128.684 214.496 128.638 214.752 129 214C130.081 211.754 131.372 208.424 131.751 206.527C133.536 197.586 132.337 192.539 131.559 189.717C130.402 185.524 129.032 182.436 126.074 178.472C123.116 174.507 117.408 169.463 110.326 165.462L73.069 144.409C65.1482 139.933 57.5592 135.283 49.5804 128.079C48.1729 126.939 44.5971 123.319 41.0996 118.913C40.4441 118.087 38.6131 115.637 37.5 114C36.1165 111.965 35.4212 110.641 34.5361 108.867C28.7781 98.4606 25.796 86.3007 25.5802 75.2463C25.371 64.5342 27.1791 56.0345 30.457 47.2291C37.5723 28.8177 49.5644 17.6108 61.5566 10.3264C67.5804 6.66725 74.7132 3.73616 82.1337 1.97328C88.1449 0.545194 94.2943 0 101.533 0C116.72 0.800493 127.913 4.80296 138.194 11.2069C157.037 22.9435 167.887 41.6256 171.245 59.0764L117.523 71.244Z" fill="#BE1953"/>
<path d="M104.73 56.0347C108.461 57.3688 116.243 62.2785 117.522 71.244L171.243 59.0764C167.886 41.6256 157.036 22.9435 138.193 11.2069C127.912 4.80296 116.719 0.800493 101.532 0C94.293 0 88.1436 0.545194 82.1323 1.97328C74.7118 3.73616 67.5791 6.66725 61.5553 10.3264C49.5631 17.6108 37.571 28.8177 30.4556 47.2291C27.1778 56.0345 25.3697 64.5342 25.5788 75.2463C25.7947 86.3007 28.7767 98.4606 34.5348 108.867C35.4198 110.641 36.1152 111.965 37.4987 114C39.9987 113.5 59.9987 113.757 66.4987 114.5C90.4987 117.243 128.999 113.5 135.999 111.475C132.771 109.933 129.284 108.367 125.515 106.786C117.52 103.264 103.929 97.2578 96.7357 93.6576C91.9372 91.2561 87.5142 88.3431 84.7435 85.1724C79.1475 78.7685 79.9464 69.2425 83.944 63.2391C87.9416 57.2356 95.1351 53.633 104.73 56.0347Z" fill="#771F49"/>
<path d="M177.484 260.16C185.478 248.82 198.27 228.14 198.27 201.724C198.27 198.236 198.145 195.012 197.907 192C178.999 206.527 154.499 213 128.999 214C128.637 214.752 128.683 214.496 128.28 215.21C126.674 218.058 124.557 220.755 121.996 223.129C118.319 226.539 114.177 228.985 109.365 230.542C105.567 231.77 101.113 232.344 96.7365 232.063C88.4471 231.529 81.5799 227.981 76.7491 223.664C65.8326 227.776 38.5511 239.7 16.7578 254.5C18.0876 256.493 19.4383 258.381 20.7862 260.16C31.0967 273.768 62.8387 306.589 100.414 325C135.911 306.589 167.89 273.768 177.484 260.16Z" fill="#EB3355"/>
</g>
<defs>
<clipPath id="clip0_1890_83">
<rect width="948" height="325" fill="white"/>
</clipPath>
</defs>
</svg>
