<svg width="942" height="325" viewBox="0 0 942 325" fill="none" xmlns="http://www.w3.org/2000/svg">
<path d="M333.773 207.578C333.773 212.331 332.797 216.79 330.844 220.957C328.956 225.124 326.384 228.77 323.129 231.895C319.939 235.02 316.195 237.493 311.898 239.316C307.667 241.074 303.174 241.953 298.422 241.953H288.363C283.611 241.953 279.086 241.074 274.789 239.316C270.557 237.493 266.814 235.02 263.559 231.895C260.368 228.77 257.797 225.124 255.844 220.957C253.956 216.79 253.012 212.331 253.012 207.578V202.012L265.609 199.961V207.578C265.609 210.703 266.228 213.633 267.465 216.367C268.767 219.036 270.492 221.413 272.641 223.496C274.789 225.514 277.263 227.109 280.062 228.281C282.927 229.453 285.922 230.039 289.047 230.039H297.836C300.961 230.039 303.923 229.453 306.723 228.281C309.522 227.109 311.996 225.514 314.145 223.496C316.293 221.413 317.986 219.036 319.223 216.367C320.525 213.633 321.176 210.703 321.176 207.578V203.379C321.176 198.561 320.232 194.557 318.344 191.367C316.456 188.177 313.949 185.475 310.824 183.262C307.699 180.983 304.151 179.062 300.18 177.5C296.273 175.938 292.237 174.375 288.07 172.812C283.904 171.25 279.835 169.525 275.863 167.637C271.957 165.749 268.441 163.405 265.316 160.605C262.191 157.741 259.685 154.258 257.797 150.156C255.909 146.055 254.965 141.009 254.965 135.02V132.383C254.965 127.63 255.844 123.171 257.602 119.004C259.424 114.837 261.898 111.191 265.023 108.066C268.148 104.941 271.794 102.5 275.961 100.742C280.193 98.9193 284.685 98.0078 289.438 98.0078H298.422C303.174 98.0078 307.634 98.9193 311.801 100.742C315.967 102.5 319.613 104.941 322.738 108.066C325.863 111.191 328.305 114.837 330.062 119.004C331.885 123.171 332.797 127.63 332.797 132.383V135.996L320.199 138.047V132.383C320.199 129.258 319.613 126.361 318.441 123.691C317.27 120.957 315.674 118.581 313.656 116.562C311.638 114.544 309.262 112.949 306.527 111.777C303.858 110.605 300.961 110.02 297.836 110.02H290.023C286.898 110.02 283.969 110.605 281.234 111.777C278.565 112.949 276.189 114.544 274.105 116.562C272.087 118.581 270.492 120.957 269.32 123.691C268.148 126.361 267.562 129.258 267.562 132.383V135.02C267.562 139.512 268.507 143.288 270.395 146.348C272.283 149.408 274.789 152.044 277.914 154.258C281.039 156.406 284.555 158.294 288.461 159.922C292.432 161.484 296.501 163.112 300.668 164.805C304.835 166.432 308.871 168.255 312.777 170.273C316.749 172.227 320.297 174.668 323.422 177.598C326.547 180.462 329.053 183.978 330.941 188.145C332.829 192.311 333.773 197.389 333.773 203.379V207.578ZM439.73 151.816C439.73 156.569 438.819 161.029 436.996 165.195C435.238 169.362 432.797 173.008 429.672 176.133C426.547 179.258 422.868 181.732 418.637 183.555C414.47 185.312 410.01 186.191 405.258 186.191H373.52V240H360.922V99.9609H405.258C410.01 99.9609 414.47 100.872 418.637 102.695C422.868 104.453 426.547 106.895 429.672 110.02C432.797 113.145 435.238 116.823 436.996 121.055C438.819 125.221 439.73 129.681 439.73 134.434V151.816ZM427.133 134.434C427.133 131.309 426.547 128.411 425.375 125.742C424.203 123.008 422.576 120.632 420.492 118.613C418.474 116.53 416.098 114.902 413.363 113.73C410.694 112.559 407.797 111.973 404.672 111.973H373.52V174.18H404.672C407.797 174.18 410.694 173.594 413.363 172.422C416.098 171.25 418.474 169.655 420.492 167.637C422.576 165.618 424.203 163.275 425.375 160.605C426.547 157.871 427.133 154.941 427.133 151.816V134.434ZM540.609 207.578C540.609 212.331 539.698 216.79 537.875 220.957C536.117 225.124 533.676 228.77 530.551 231.895C527.426 235.02 523.78 237.493 519.613 239.316C515.447 241.074 510.987 241.953 506.234 241.953H496.273C491.521 241.953 487.029 241.074 482.797 239.316C478.63 237.493 474.984 235.02 471.859 231.895C468.734 228.77 466.26 225.124 464.438 220.957C462.68 216.79 461.801 212.331 461.801 207.578V132.383C461.801 127.63 462.68 123.171 464.438 119.004C466.26 114.837 468.734 111.191 471.859 108.066C474.984 104.941 478.63 102.5 482.797 100.742C487.029 98.9193 491.521 98.0078 496.273 98.0078H506.234C510.987 98.0078 515.447 98.9193 519.613 100.742C523.78 102.5 527.426 104.941 530.551 108.066C533.676 111.191 536.117 114.837 537.875 119.004C539.698 123.171 540.609 127.63 540.609 132.383V207.578ZM528.012 132.383C528.012 129.258 527.426 126.361 526.254 123.691C525.082 120.957 523.487 118.581 521.469 116.562C519.451 114.544 517.074 112.949 514.34 111.777C511.671 110.605 508.773 110.02 505.648 110.02H496.859C493.734 110.02 490.805 110.605 488.07 111.777C485.401 112.949 483.025 114.544 480.941 116.562C478.923 118.581 477.328 120.957 476.156 123.691C474.984 126.361 474.398 129.258 474.398 132.383V207.578C474.398 210.703 474.984 213.633 476.156 216.367C477.328 219.036 478.923 221.413 480.941 223.496C483.025 225.514 485.401 227.109 488.07 228.281C490.805 229.453 493.734 230.039 496.859 230.039H505.648C508.773 230.039 511.671 229.453 514.34 228.281C517.074 227.109 519.451 225.514 521.469 223.496C523.487 221.413 525.082 219.036 526.254 216.367C527.426 213.633 528.012 210.703 528.012 207.578V132.383ZM604.672 111.973V240H592.074V111.973H558.676V99.9609H638.07V111.973H604.672ZM656.137 240V99.9609H668.734V227.988H722.348V240H656.137ZM819.125 207.578C819.125 212.331 818.214 216.79 816.391 220.957C814.633 225.124 812.191 228.77 809.066 231.895C805.941 235.02 802.296 237.493 798.129 239.316C793.962 241.074 789.503 241.953 784.75 241.953H774.789C770.036 241.953 765.544 241.074 761.312 239.316C757.146 237.493 753.5 235.02 750.375 231.895C747.25 228.77 744.776 225.124 742.953 220.957C741.195 216.79 740.316 212.331 740.316 207.578V132.383C740.316 127.63 741.195 123.171 742.953 119.004C744.776 114.837 747.25 111.191 750.375 108.066C753.5 104.941 757.146 102.5 761.312 100.742C765.544 98.9193 770.036 98.0078 774.789 98.0078H784.75C789.503 98.0078 793.962 98.9193 798.129 100.742C802.296 102.5 805.941 104.941 809.066 108.066C812.191 111.191 814.633 114.837 816.391 119.004C818.214 123.171 819.125 127.63 819.125 132.383V207.578ZM806.527 132.383C806.527 129.258 805.941 126.361 804.77 123.691C803.598 120.957 802.003 118.581 799.984 116.562C797.966 114.544 795.59 112.949 792.855 111.777C790.186 110.605 787.289 110.02 784.164 110.02H775.375C772.25 110.02 769.32 110.605 766.586 111.777C763.917 112.949 761.54 114.544 759.457 116.562C757.439 118.581 755.844 120.957 754.672 123.691C753.5 126.361 752.914 129.258 752.914 132.383V207.578C752.914 210.703 753.5 213.633 754.672 216.367C755.844 219.036 757.439 221.413 759.457 223.496C761.54 225.514 763.917 227.109 766.586 228.281C769.32 229.453 772.25 230.039 775.375 230.039H784.164C787.289 230.039 790.186 229.453 792.855 228.281C795.59 227.109 797.966 225.514 799.984 223.496C802.003 221.413 803.598 219.036 804.77 216.367C805.941 213.633 806.527 210.703 806.527 207.578V132.383ZM925.961 207.578C925.961 212.331 925.049 216.79 923.227 220.957C921.469 225.124 919.027 228.77 915.902 231.895C912.777 235.02 909.132 237.493 904.965 239.316C900.798 241.074 896.339 241.953 891.586 241.953H881.625C876.872 241.953 872.38 241.074 868.148 239.316C863.982 237.493 860.336 235.02 857.211 231.895C854.086 228.77 851.612 225.124 849.789 220.957C848.031 216.79 847.152 212.331 847.152 207.578V132.383C847.152 127.63 848.031 123.171 849.789 119.004C851.612 114.837 854.086 111.191 857.211 108.066C860.336 104.941 863.982 102.5 868.148 100.742C872.38 98.9193 876.872 98.0078 881.625 98.0078H891.586C896.339 98.0078 900.798 98.9193 904.965 100.742C909.132 102.5 912.777 104.941 915.902 108.066C919.027 111.191 921.469 114.837 923.227 119.004C925.049 123.171 925.961 127.63 925.961 132.383V138.047L913.363 140V132.383C913.363 129.258 912.777 126.361 911.605 123.691C910.434 120.957 908.839 118.581 906.82 116.562C904.802 114.544 902.426 112.949 899.691 111.777C897.022 110.605 894.125 110.02 891 110.02H882.211C879.086 110.02 876.156 110.605 873.422 111.777C870.753 112.949 868.376 114.544 866.293 116.562C864.275 118.581 862.68 120.957 861.508 123.691C860.336 126.361 859.75 129.258 859.75 132.383V207.578C859.75 210.703 860.336 213.633 861.508 216.367C862.68 219.036 864.275 221.413 866.293 223.496C868.376 225.514 870.753 227.109 873.422 228.281C876.156 229.453 879.086 230.039 882.211 230.039H891C894.125 230.039 897.022 229.453 899.691 228.281C902.426 227.109 904.802 225.514 906.82 223.496C908.839 221.413 910.434 219.036 911.605 216.367C912.777 213.633 913.363 210.703 913.363 207.578V199.961L925.961 202.012V207.578Z" fill="white"/>
<path d="M117.523 71.244C116.244 62.2785 108.463 57.3688 104.732 56.0347C95.1364 53.633 87.9429 57.2356 83.9453 63.2391C79.9478 69.2425 79.1488 78.7685 84.7448 85.1724C87.5155 88.3431 91.9385 91.2561 96.737 93.6576C103.931 97.2578 117.522 103.264 125.516 106.786C129.285 108.367 132.772 109.933 136 111.475C161.289 123.561 170.715 134.233 175.742 139.924L175.885 140.086C181.507 146.45 186.278 153.695 189.58 160.899C193.803 170.114 196.889 179.116 197.907 192C198.145 195.012 198.27 198.236 198.27 201.724C198.27 228.14 185.479 248.82 177.484 260.16C167.89 273.768 135.911 306.589 100.415 325C62.8392 306.589 31.0973 273.768 20.7868 260.16C19.4389 258.381 18.0881 256.493 16.7584 254.5C7.91628 241.251 0.000400364 223.4 0.000400365 202.525C-0.00306933 197.722 -0.00312382 193.719 0.867594 186.702C2.16232 178.358 4.67393 169.683 8.07572 162.253C11.9935 153.695 15.19 148.892 25.5802 136.884C46.3696 159.298 60.7602 165.462 76.7497 174.507C63.955 184.914 65.6576 191.252 65.5539 197.722C65.5539 207.328 68.4482 213.432 72.4454 218.935C73.6121 220.541 75.0557 222.15 76.7497 223.664C81.5805 227.981 88.4476 231.529 96.737 232.063C101.114 232.344 105.568 231.77 109.365 230.542C114.177 228.985 118.319 226.539 121.997 223.129C124.557 220.755 126.675 218.058 128.281 215.21C128.684 214.496 128.638 214.752 129 214C130.081 211.754 131.372 208.424 131.751 206.527C133.536 197.586 132.337 192.539 131.559 189.717C130.402 185.524 129.032 182.436 126.074 178.472C123.116 174.507 117.408 169.463 110.326 165.462L73.069 144.409C65.1482 139.933 57.5592 135.283 49.5804 128.079C48.1729 126.939 44.5971 123.319 41.0996 118.913C40.4441 118.087 38.6131 115.637 37.5 114C36.1165 111.965 35.4212 110.641 34.5361 108.867C28.7781 98.4606 25.796 86.3007 25.5802 75.2463C25.371 64.5342 27.1791 56.0345 30.457 47.2291C37.5723 28.8177 49.5644 17.6108 61.5566 10.3264C67.5804 6.66725 74.7132 3.73616 82.1337 1.97328C88.1449 0.545194 94.2943 0 101.533 0C116.72 0.800493 127.913 4.80296 138.194 11.2069C157.037 22.9435 167.887 41.6256 171.245 59.0764L117.523 71.244Z" fill="white"/>
<path d="M104.73 56.0347C108.461 57.3688 116.243 62.2785 117.522 71.244L171.243 59.0764C167.886 41.6256 157.036 22.9435 138.193 11.2069C127.912 4.80296 116.719 0.800493 101.532 0C94.293 0 88.1436 0.545194 82.1323 1.97328C74.7118 3.73616 67.5791 6.66725 61.5553 10.3264C49.5631 17.6108 37.571 28.8177 30.4556 47.2291C27.1778 56.0345 25.3697 64.5342 25.5788 75.2463C25.7947 86.3007 28.7767 98.4606 34.5348 108.867C35.4198 110.641 36.1152 111.965 37.4987 114C39.9987 113.5 59.9987 113.757 66.4987 114.5C90.4987 117.243 128.999 113.5 135.999 111.475C132.771 109.933 129.284 108.367 125.515 106.786C117.52 103.264 103.929 97.2578 96.7357 93.6576C91.9372 91.2561 87.5142 88.3431 84.7435 85.1724C79.1475 78.7685 79.9464 69.2425 83.944 63.2391C87.9416 57.2356 95.1351 53.633 104.73 56.0347Z" fill="white"/>
<path d="M177.484 260.16C185.478 248.82 198.27 228.14 198.27 201.724C198.27 198.236 198.145 195.012 197.907 192C178.999 206.527 154.499 213 128.999 214C128.637 214.752 128.683 214.496 128.28 215.21C126.674 218.058 124.557 220.755 121.996 223.129C118.319 226.539 114.177 228.985 109.365 230.542C105.567 231.77 101.113 232.344 96.7365 232.063C88.4471 231.529 81.5799 227.981 76.7491 223.664C65.8326 227.776 38.5511 239.7 16.7578 254.5C18.0876 256.493 19.4383 258.381 20.7862 260.16C31.0967 273.768 62.8387 306.589 100.414 325C135.911 306.589 167.89 273.768 177.484 260.16Z" fill="white"/>
</svg>
