<svg width="37" height="37" viewBox="0 0 37 37" fill="none" xmlns="http://www.w3.org/2000/svg">
<path d="M25.5924 8.9725C24.5386 7.76942 23.9578 6.22437 23.9582 4.625H19.1945V23.7417C19.1577 24.7762 18.721 25.756 17.9762 26.4749C17.2314 27.1939 16.2367 27.5957 15.2016 27.5958C13.0124 27.5958 11.1932 25.8075 11.1932 23.5875C11.1932 20.9358 13.7524 18.9471 16.3886 19.7642V14.8925C11.0699 14.1833 6.41406 18.315 6.41406 23.5875C6.41406 28.7212 10.6691 32.375 15.1861 32.375C20.027 32.375 23.9582 28.4438 23.9582 23.5875V13.8904C25.8899 15.2777 28.2092 16.022 30.5874 16.0179V11.2542C30.5874 11.2542 27.6891 11.3929 25.5924 8.9725Z" fill="#F0D9E4"/>
</svg>
