<svg width="35" height="35" viewBox="0 0 35 35" fill="none" xmlns="http://www.w3.org/2000/svg">
<path d="M11.782 29.1667C13.9384 29.2388 16.0874 28.878 18.102 28.1054C20.1166 27.3329 21.9559 26.1644 23.5112 24.6689C25.0665 23.1734 26.3062 21.3813 27.1571 19.3986C28.008 17.4158 28.4529 15.2826 28.4653 13.125C29.4535 11.9021 30.1874 10.4939 30.6236 8.98333C30.6562 8.86398 30.6536 8.73776 30.6161 8.61987C30.5786 8.50198 30.5078 8.39745 30.4122 8.31886C30.3167 8.24027 30.2005 8.19097 30.0776 8.17691C29.9546 8.16284 29.8303 8.1846 29.7195 8.23958C29.2025 8.48845 28.6204 8.56884 28.0553 8.46942C27.4902 8.37 26.9705 8.09579 26.5695 7.68541C26.0575 7.12479 25.4382 6.67264 24.7484 6.35574C24.0585 6.03884 23.312 5.86364 22.5531 5.84052C21.7943 5.8174 21.0385 5.94684 20.3306 6.22115C19.6227 6.49547 18.9771 6.90908 18.432 7.43749C17.6856 8.16033 17.1389 9.06396 16.845 10.0606C16.5511 11.0572 16.5201 12.1128 16.7549 13.125C11.8695 13.4167 8.51529 11.0979 5.83196 7.91874C5.75135 7.82745 5.6459 7.76161 5.52848 7.72926C5.41107 7.69691 5.28678 7.69945 5.17079 7.73657C5.05479 7.77368 4.95212 7.84377 4.8753 7.93828C4.79848 8.03278 4.75085 8.14761 4.73821 8.26874C4.22702 11.1044 4.59577 14.0285 5.79494 16.6484C6.99412 19.2684 8.96627 21.4586 11.4465 22.925C9.78351 24.8322 7.4481 26.0235 4.92779 26.25C4.79277 26.2724 4.66812 26.3364 4.57131 26.4332C4.47449 26.5299 4.41034 26.6545 4.38784 26.7895C4.36533 26.9245 4.38561 27.0632 4.44582 27.1861C4.50603 27.309 4.60316 27.41 4.72363 27.475C6.91626 28.5707 9.33084 29.1494 11.782 29.1667Z" fill="#F0D9E4"/>
</svg>
