<svg width="27" height="27" viewBox="0 0 27 27" fill="none" xmlns="http://www.w3.org/2000/svg">
<g clip-path="url(#clip0_1636_59)">
<path d="M13.5861 3.37305H13.7363C15.1234 3.37811 22.1518 3.42873 24.0469 3.93836C24.6198 4.09389 25.1418 4.39706 25.5608 4.81756C25.9799 5.23806 26.2812 5.76117 26.4347 6.33461C26.6051 6.97586 26.7249 7.82467 26.8059 8.70048L26.8228 8.87598L26.8599 9.31473L26.8734 9.49023C26.9831 11.0326 26.9966 12.4771 26.9983 12.7927V12.9192C26.9966 13.2466 26.9814 14.789 26.8599 16.3955L26.8464 16.5727L26.8312 16.7482C26.7469 17.7134 26.622 18.6719 26.4347 19.3773C26.2816 19.951 25.9805 20.4743 25.5614 20.8949C25.1423 21.3155 24.62 21.6185 24.0469 21.7735C22.0894 22.3 14.6492 22.3372 13.6181 22.3389H13.3785C12.8571 22.3389 10.7004 22.3287 8.43919 22.2511L8.15231 22.241L8.0055 22.2342L7.71694 22.2224L7.42837 22.2106C5.55525 22.1279 3.77156 21.9946 2.94975 21.7719C2.37683 21.6169 1.85467 21.3142 1.4356 20.8939C1.01652 20.4737 0.715242 19.9507 0.561938 19.3773C0.374625 18.6736 0.24975 17.7134 0.165375 16.7482L0.151875 16.571L0.138375 16.3955C0.0550928 15.252 0.00894352 14.1062 0 12.9597L0 12.7522C0.003375 12.3894 0.016875 11.1355 0.108 9.7518L0.119813 9.57798L0.124875 9.49023L0.138375 9.31473L0.1755 8.87598L0.192375 8.70048C0.273375 7.82467 0.393187 6.97417 0.563625 6.33461C0.716671 5.76094 1.01784 5.23758 1.43693 4.81701C1.85602 4.39644 2.37831 4.09343 2.95144 3.93836C3.77325 3.71898 5.55694 3.58398 7.43006 3.49961L7.71694 3.4878L8.00719 3.47767L8.15231 3.47261L8.44087 3.4608C10.0469 3.40912 11.6535 3.38043 13.2604 3.37473H13.5861V3.37305ZM10.8 8.78992V16.9203L17.8149 12.8568L10.8 8.78992Z" fill="#F0D9E4"/>
</g>
<defs>
<clipPath id="clip0_1636_59">
<rect width="27" height="27" fill="white"/>
</clipPath>
</defs>
</svg>
